<?xml version="1.0" standalone="no"?>
<!DOCTYPE svg PUBLIC "-//W3C//DTD SVG 1.1//EN" "http://www.w3.org/Graphics/SVG/1.1/DTD/svg11.dtd" >
<svg xmlns="http://www.w3.org/2000/svg">
<metadata>Generated by IcoMoon</metadata>
<defs>
<font id="yi" horiz-adv-x="1024">
<font-face units-per-em="1024" ascent="960" descent="-64" />
<missing-glyph horiz-adv-x="1024" />
<glyph unicode="&#x20;" horiz-adv-x="512" d="" />
<glyph unicode="&#xe900;" glyph-name="s-quota" d="M512 887.467c-235.641 0-426.667-191.025-426.667-426.667s191.025-426.667 426.667-426.667c235.641 0 426.667 191.025 426.667 426.667v0c0 235.641-191.025 426.667-426.667 426.667v0zM896 481.28h-410.027l-144.64 320.853c49.914 25.419 108.854 40.311 171.272 40.311 204.495 0 371.655-159.848 383.347-361.412l0.048-1.033zM512 76.8c-211.819 0.342-383.399 172.134-383.399 384 0 134.095 68.734 252.137 172.892 320.815l1.44 0.892 150.187-331.093c3.468-7.367 10.83-12.375 19.361-12.375 0.093 0 0.186 0.001 0.28 0.002h423.239c-11.846-202.504-178.96-362.24-383.383-362.24-0.217 0-0.434 0-0.65 0.001h0.033z" />
<glyph unicode="&#xe901;" glyph-name="alm" d="M901.76 279.68c-3.637 15.865-17.634 27.521-34.352 27.521-0.073 0-0.146 0-0.219-0.001h-39.029v345.6c-3.875 142.255-120.117 256.097-262.948 256.097-2.508 0-5.007-0.035-7.498-0.105l0.366 0.008h-54.4c-1.933 0.051-4.209 0.080-6.492 0.080-142.826 0-259.064-113.832-262.94-255.722l-0.008-0.358v-345.6h-42.24c-0.021 0-0.046 0-0.071 0-16.948 0-31.099-11.978-34.449-27.931l-0.040-0.229-46.72-221.44c-0.452-2.116-0.711-4.548-0.711-7.040 0-19.44 15.76-35.2 35.2-35.2 0.025 0 0.050 0 0.075 0h771.836c0.062 0 0.135-0.001 0.208-0.001 19.44 0 35.2 15.76 35.2 35.2 0 2.722-0.309 5.373-0.894 7.917l0.046-0.237zM304.64 652.8c4.507 102.458 88.665 183.816 191.825 183.816 2.537 0 5.063-0.049 7.576-0.147l-0.362 0.011h54.4c2.343 0.102 5.091 0.161 7.853 0.161 103.169 0 187.333-81.372 191.812-183.436l0.014-0.404v-345.6h-453.12zM188.8 85.12l32 151.68h618.24l33.92-151.68zM645.12 727.040c-20.455 20.239-48.598 32.742-79.662 32.742-1.694 0-3.38-0.037-5.056-0.111l0.239 0.008c-14.138 0-25.6-11.462-25.6-25.6s11.462-25.6 25.6-25.6v0c1.424 0.113 3.084 0.177 4.759 0.177 16.693 0 31.893-6.391 43.287-16.859l-0.046 0.042c12.742-15.202 20.481-34.974 20.481-56.553 0-0.143 0-0.286-0.001-0.429v0.022-160.64c0-14.138 11.462-25.6 25.6-25.6s25.6 11.462 25.6 25.6v0 160c0 0.046 0 0.1 0 0.155 0 35.623-13.351 68.128-35.322 92.784l0.122-0.139z" />
<glyph unicode="&#xe902;" glyph-name="apply" d="M748.8 646.4v288c0 19.2-19.2 38.4-38.4 38.4h-672c-19.2 0-38.4-19.2-38.4-38.4v-704c0-19.2 19.2-38.4 38.4-38.4h300.8c44.8-147.2 179.2-243.2 332.8-243.2 192 0 352 160 352 352 0 166.4-115.2 313.6-275.2 345.6zM377.6 499.2h-83.2c0 0 0 0 0 6.4v160c0 0 0 0 0 6.4h377.6v-12.8c-121.6 0-230.4-64-294.4-160zM76.8 672h147.2c0 0 0 0 0-6.4v-166.4c0 0 0 0 0-6.4h-147.2v179.2zM672 742.4h-243.2v147.2h236.8v-147.2zM358.4 889.6v-153.6h-281.6v153.6h281.6zM76.8 428.8h262.4c-12.8-44.8-19.2-83.2-19.2-128 0-12.8 0-19.2 0-32h-243.2v160zM672 44.8c-115.2 0-217.6 83.2-249.6 198.4 0 0 0 0 0 0-6.4 19.2-6.4 38.4-6.4 64 0 44.8 12.8 89.6 32 128 0 0 0 0 0 0 44.8 76.8 128 128 224 128 12.8 0 19.2 0 38.4 0 0 0 0 0 0 0 128-19.2 217.6-128 217.6-256 0-147.2-115.2-262.4-256-262.4zM774.4 409.6l-134.4-147.2-76.8 76.8c-12.8 12.8-38.4 12.8-57.6 0s-12.8-38.4 0-57.6l102.4-102.4c6.4-6.4 19.2-12.8 25.6-12.8s19.2 6.4 25.6 12.8l172.8 172.8c12.8 12.8 12.8 38.4 0 57.6-12.8 12.8-38.4 12.8-57.6 0z" />
<glyph unicode="&#xe903;" glyph-name="arrow-left" d="M707.84 483.2h-307.2l134.4 134.4c6.306 6.306 10.206 15.017 10.206 24.64 0 19.245-15.601 34.846-34.846 34.846-9.623 0-18.334-3.9-24.64-10.206l-192-192v-17.28l192-192c6.212-6.27 14.804-10.173 24.307-10.24h0.013c9.516 0.067 18.108 3.97 24.317 10.237l0.003 0.003c6.376 6.274 10.326 14.995 10.326 24.64s-3.951 18.366-10.322 24.635l-0.005 0.005-133.76 98.56h307.2c19.264 0 34.88 15.616 34.88 34.88s-15.616 34.88-34.88 34.88v0zM512 972.8c-282.77 0-512-229.23-512-512s229.23-512 512-512c282.77 0 512 229.23 512 512v0c0 282.77-229.23 512-512 512v0zM512 28.8c-238.587 0-432 193.413-432 432s193.413 432 432 432c238.587 0 432-193.413 432-432v0c-0.364-238.441-193.559-431.636-431.965-432h-0.035z" />
<glyph unicode="&#xe904;" glyph-name="arrow-right" d="M316.16 412.8h307.2l-134.4-134.4c-6.306-6.306-10.206-15.017-10.206-24.64 0-19.245 15.601-34.846 34.846-34.846 9.623 0 18.334 3.9 24.64 10.206l192 192v39.68l-192 192c-3.809 12.051-13.721 21.112-26.017 23.642l-0.223 0.038c-9.516-0.067-18.108-3.97-24.317-10.237l-0.003-0.003c-6.376-6.274-10.326-14.995-10.326-24.64s3.951-18.366 10.322-24.635l0.005-0.005 134.4-135.040h-305.92c-19.264 0-34.88-15.616-34.88-34.88s15.616-34.88 34.88-34.88v0zM512 972.8c-282.77 0-512-229.23-512-512s229.23-512 512-512c282.77 0 512 229.23 512 512v0c0 282.77-229.23 512-512 512v0zM512 28.16c-238.587 0-432 193.413-432 432s193.413 432 432 432c238.362 0 431.635-193.049 431.999-431.326v-0.034c0 0 0 0 0 0 0-238.715-193.335-432.275-431.965-432.639h-0.035z" />
<glyph unicode="&#xe905;" glyph-name="autobu" d="M645.76 663.68c-0.189 0-0.413 0.001-0.638 0.001-182.033 0-329.6-147.567-329.6-329.6s147.567-329.6 329.6-329.6c181.583 0 328.87 146.838 329.597 328.25v0.069c0.002 0.38 0.002 0.83 0.002 1.281 0 181.809-147.204 329.237-328.928 329.599h-0.035zM645.76 74.88c-141.385 0-256 114.615-256 256s114.615 256 256 256c141.385 0 256-114.615 256-256v0c-2.84-139.839-115.997-252.324-255.832-254.078l-0.168-0.002zM798.080 325.76h-140.8v163.84c0 19.44-15.76 35.2-35.2 35.2s-35.2-15.76-35.2-35.2v0-199.040c0-19.44 15.76-35.2 35.2-35.2v0h175.36c19.44 0 35.2 15.76 35.2 35.2s-15.76 35.2-35.2 35.2v0zM335.36 89.6h-97.92c-41.722 5.938-73.45 41.422-73.45 84.316 0 3.214 0.178 6.386 0.525 9.508l-0.035-0.384v417.28c-0.27 2.547-0.425 5.502-0.425 8.493 0 42.871 31.694 78.34 72.929 84.254l0.455 0.054h188.16c13.231 0.116 24.707 7.514 30.628 18.376l0.092 0.184 55.68 99.84h309.12l56.96-158.72c2.307-17.408 17.057-30.701 34.911-30.701 19.44 0 35.2 15.76 35.2 35.2 0 7.403-2.285 14.272-6.189 19.94l0.077-0.119-64 180.48c-5.096 13.564-17.958 23.041-33.033 23.041-0.087 0-0.173 0-0.26-0.001h-355.827c-13.231-0.116-24.707-7.514-30.628-18.376l-0.092-0.184-53.76-98.56h-167.040c-80.547-6.056-143.606-72.899-143.606-154.469 0-3.071 0.089-6.122 0.266-9.149l-0.019 0.418v-417.28c-0.181-2.801-0.284-6.072-0.284-9.368 0-81.584 63.079-148.434 143.127-154.441l0.517-0.031h97.92c19.44 0 35.2 15.76 35.2 35.2s-15.76 35.2-35.2 35.2v0z" />
<glyph unicode="&#xe906;" glyph-name="backup" d="M586.88 524.8c-14.138 0-25.6-11.462-25.6-25.6s11.462-25.6 25.6-25.6v0c0.927 0.064 2.008 0.1 3.099 0.1 12.668 0 24.19-4.908 32.769-12.925l-0.027 0.025c9.539-11.576 15.333-26.549 15.36-42.874v-0.006c-0.005-0.193-0.008-0.42-0.008-0.648 0-13.916 11.104-25.239 24.936-25.592l0.033-0.001c0.002 0 0.005 0 0.008 0 13.913 0 25.234 11.1 25.591 24.927l0.001 0.033c0.012 0.621 0.019 1.354 0.019 2.088 0 29.934-11.169 57.259-29.566 78.036l0.108-0.124c-17.768 17.446-42.143 28.215-69.034 28.215-1.156 0-2.307-0.020-3.453-0.059l0.166 0.005zM900.48 723.84l-27.52 21.76-44.16 95.36c-5.709 12.189-17.874 20.48-31.974 20.48-0.009 0-0.018 0-0.027 0h-292.479c-0.097 0.001-0.212 0.002-0.327 0.002-13.853 0-25.836-8.002-31.581-19.636l-0.092-0.206-41.6-88.32h-222.72c-80.652-5.14-144.119-71.812-144.119-153.307 0-2.129 0.043-4.247 0.129-6.355l-0.010 0.302v-402.56c-0.057-1.565-0.090-3.404-0.090-5.25 0-82.612 65.218-149.991 146.976-153.46l0.314-0.011h608c79.19 6.765 140.904 72.712 140.904 153.074 0 1.985-0.038 3.962-0.112 5.929l0.009-0.284v402.56c0.029 1.146 0.045 2.495 0.045 3.848 0 50.654-23.077 95.917-59.291 125.851l-0.275 0.221zM896 191.36c0.138-1.793 0.216-3.882 0.216-5.99 0-43.774-33.805-79.652-76.733-82.952l-0.283-0.017h-611.2c-44.642 1.659-80.203 38.25-80.203 83.146 0 2.046 0.074 4.074 0.219 6.083l-0.016-0.269v402.56c-0.11 1.601-0.172 3.47-0.172 5.353 0 43.758 33.781 79.627 76.687 82.949l0.285 0.018h248.32c0.097-0.001 0.212-0.002 0.327-0.002 13.853 0 25.836 8.002 31.581 19.636l0.092 0.206 42.24 88.32h247.040l38.4-82.56c2.448-5.129 5.913-9.413 10.163-12.742l0.077-0.058 35.2-26.88c22.963-16.93 37.708-43.858 37.76-74.232v-0.008zM572.16 640c-129.367 0-234.239-104.873-234.239-234.24s104.873-234.24 234.24-234.24c129.367 0 234.24 104.873 234.24 234.24 0 0.225 0 0.45-0.001 0.675v-0.035c-0.364 129.092-105.097 233.6-234.239 233.6 0 0-0.001 0-0.001 0v0zM572.16 242.56c-90.486 0-163.84 73.354-163.84 163.84s73.354 163.84 163.84 163.84c90.486 0 163.84-73.354 163.84-163.84v0c0-90.486-73.354-163.84-163.84-163.84v0z" />
<glyph unicode="&#xe907;" glyph-name="bandwidth" d="M912.64 791.68h-10.24l-204.16-41.6c-16.221-3.391-28.23-17.573-28.23-34.56 0-19.479 15.791-35.27 35.27-35.27 2.492 0 4.924 0.258 7.269 0.75l-0.229-0.040 119.68 23.040-293.76-411.52-136.32 248.96c-6.076 11.076-17.658 18.459-30.964 18.459-11.711 0-22.087-5.719-28.486-14.518l-0.070-0.101-259.2-359.040c-3.152-5.17-5.018-11.424-5.018-18.113 0-19.44 15.76-35.2 35.2-35.2 10.699 0 20.282 4.773 26.738 12.306l0.040 0.048 227.2 315.52 136.32-249.6c5.695-10.52 16.32-17.734 28.694-18.554l0.106-0.006c1.257-0.162 2.712-0.255 4.187-0.255 10.636 0 20.149 4.804 26.489 12.361l0.044 0.053 313.6 443.52v-104.96c0-19.44 15.76-35.2 35.2-35.2s35.2 15.76 35.2 35.2v213.12c0 0.002 0 0.004 0 0.006 0 19.215-15.397 34.835-34.526 35.194h-0.034z" />
<glyph unicode="&#xe908;" glyph-name="billing" d="M806.4 646.4c25.6 0 51.2 19.2 51.2 51.2v32c0 57.6-64 121.6-172.8 121.6h-102.4v70.4c0 32-19.2 51.2-51.2 51.2s-44.8-19.2-44.8-51.2v-76.8h-83.2c-185.6 0-217.6-96-217.6-153.6v-192c0-44.8 51.2-102.4 192-102.4h108.8v-224h-89.6c-70.4 0-102.4 6.4-108.8 12.8v12.8c0 25.6-19.2 51.2-51.2 51.2s-51.2-19.2-51.2-51.2v-25.6c0-96 140.8-96 211.2-96h89.6v-76.8c0-25.6 19.2-51.2 51.2-51.2s51.2 19.2 51.2 51.2v76.8h83.2c51.2 0 192 0 192 121.6v179.2c0 51.2-51.2 115.2-192 115.2h-89.6v262.4h102.4c51.2 0 76.8-19.2 76.8-25.6v-32c0-32 19.2-51.2 44.8-51.2zM665.6 396.8c70.4 0 96-19.2 96-19.2v-179.2c0-19.2-51.2-25.6-96-25.6h-83.2v224h83.2zM486.4 492.8h-108.8c-57.6 0-83.2 12.8-89.6 19.2v185.6c0 12.8 0 57.6 121.6 57.6h76.8v-262.4z" />
<glyph unicode="&#xe909;" glyph-name="blueprint" d="M636.16 204.8l-19.2 128c-1.505 8.868-9.13 15.536-18.312 15.536-3.131 0-6.081-0.775-8.669-2.145l0.101 0.049-110.72-59.52c-5.833-3.206-9.721-9.309-9.721-16.32s3.888-13.114 9.625-16.272l0.096-0.048 32.64-16c-28.385-82.115-105.034-140.035-195.21-140.035-113.096 0-204.913 91.103-206.069 203.925l-0.001 0.11c-0.001 0.253-0.002 0.552-0.002 0.851 0 82.196 47.824 153.221 117.165 186.769l1.237 0.54c12.105 5.787 20.318 17.934 20.318 32 0 19.528-15.83 35.358-35.358 35.358-5.462 0-10.635-1.238-15.253-3.45l0.213 0.092c-94.989-45.311-159.456-140.577-159.456-250.9 0-153.049 124.071-277.12 277.12-277.12 1.159 0 2.316 0.007 3.472 0.021l-0.176-0.002c116.601 0.733 215.936 73.867 255.365 176.675l0.635 1.885 33.92-16.64c2.256-1.051 4.897-1.664 7.682-1.664 10.161 0 18.414 8.164 18.558 18.291v0.014zM314.88 400c-4.169-3.311-6.819-8.38-6.819-14.068 0-8.225 5.541-15.155 13.093-17.262l0.126-0.030 119.040-35.84c1.549-0.484 3.329-0.764 5.175-0.764 9.897 0 17.92 8.023 17.92 17.92 0 0.494-0.020 0.983-0.059 1.467l0.004-0.064-8.96 127.36c-0.496 9.499-8.319 17.013-17.897 17.013-4.41 0-8.448-1.593-11.569-4.235l0.026 0.022-30.080-24.96c-40.877 37.775-66.387 91.663-66.387 151.508 0 113.815 92.265 206.080 206.080 206.080 30.292 0 59.057-6.536 84.962-18.274l-1.295 0.525c71.164-32.747 120.129-102.569 122.235-184.051l0.005-0.269c0-19.44 15.76-35.2 35.2-35.2s35.2 15.76 35.2 35.2v0c-2.613 109.468-68.021 203.049-161.478 246.325l-1.722 0.715c-32.366 14.382-70.126 22.756-109.842 22.756-152.696 0-276.48-123.784-276.48-276.48 0-75.741 30.456-144.368 79.789-194.303l-0.027 0.028zM928.64 480.64c-50.418 58.588-124.66 95.46-207.514 95.46-31.088 0-60.964-5.191-88.808-14.754l1.922 0.574-8.96 35.84c-2.263 8.652-10.010 14.933-19.224 14.933-6.163 0-11.67-2.81-15.309-7.22l-0.027-0.034-87.68-103.040c-2.798-3.394-4.495-7.787-4.495-12.576 0-8.672 5.563-16.044 13.315-18.742l0.139-0.042 128-49.28c2.101-0.827 4.534-1.306 7.079-1.306 10.957 0 19.84 8.883 19.84 19.84 0 1.83-0.248 3.603-0.712 5.285l0.033-0.139-12.8 48c20.249 7.386 43.626 11.657 68 11.657 112.754 0 204.16-91.406 204.16-204.16 0-61.547-27.235-116.734-70.31-154.165l-0.25-0.212c-35.687-30.695-82.467-49.384-133.612-49.384-29.929 0-58.363 6.4-84.008 17.906l1.3-0.522c-3.090 0.983-6.643 1.55-10.329 1.55-19.44 0-35.2-15.76-35.2-35.2 0-12.866 6.903-24.12 17.208-30.26l0.161-0.089c32.617-14.719 70.712-23.295 110.811-23.295 151.989 0 275.2 123.211 275.2 275.2 0 68.435-24.98 131.036-66.318 179.182l0.308-0.367z" />
<glyph unicode="&#xe90a;" glyph-name="brokeup" d="M591.36 344.32c-6.425 9.336-17.051 15.379-29.089 15.379-19.44 0-35.2-15.76-35.2-35.2 0-1.586 0.105-3.147 0.308-4.678l-0.019 0.179 17.28-46.72-192-192c-2.731-1.233-5.922-1.952-9.28-1.952s-6.549 0.718-9.426 2.010l0.146-0.059c-16.965 4.399-31.5 13.123-42.852 24.93l-0.028 0.030-134.4 134.4c-14.356 12.872-24.007 30.737-26.208 50.843l-0.032 0.357c-0.488 1.433-0.769 3.084-0.769 4.8s0.282 3.367 0.801 4.908l-0.032-0.108 192 192 44.8-17.92c2.122-0.455 4.56-0.715 7.059-0.715 19.44 0 35.2 15.76 35.2 35.2 0 12.308-6.317 23.141-15.886 29.433l-0.133 0.082-64 26.88c-3.853 1.577-8.324 2.492-13.009 2.492-9.651 0-18.396-3.884-24.755-10.175l-207.357-207.357c-14.65-14.795-23.702-35.157-23.702-57.633 0-0.664 0.008-1.325 0.024-1.985l-0.002 0.098c1.848-40.036 19.419-75.638 46.634-101.041l0.086-0.079 134.4-134.4c20.745-21.044 47.27-36.338 77.001-43.307l1.079-0.213c3.456-0.383 7.462-0.601 11.52-0.601s8.064 0.218 12.009 0.644l-0.489-0.043c0.602-0.016 1.311-0.025 2.022-0.025 22.319 0 42.586 8.788 57.528 23.093l-0.030-0.029 206.080 206.080c6.459 6.384 10.458 15.244 10.458 25.038 0 4.336-0.784 8.489-2.218 12.325l0.080-0.243zM916.48 730.88l-134.4 134.4c-25.933 26.061-61.513 42.503-100.93 43.516l-0.19 0.004c-0.562 0.014-1.224 0.022-1.887 0.022-22.476 0-42.838-9.052-57.639-23.708l0.007 0.006-206.080-202.24c-6.365-6.369-10.302-15.166-10.302-24.882 0-5.37 1.202-10.459 3.353-15.012l-0.091 0.214 30.080-64c5.787-12.105 17.934-20.318 32-20.318 19.528 0 35.358 15.83 35.358 35.358 0 5.462-1.238 10.635-3.45 15.253l0.092-0.213-19.84 43.52 188.16 188.8c1.525 0.557 3.285 0.878 5.12 0.878s3.595-0.322 5.227-0.912l-0.107 0.034c20.463-2.233 38.328-11.884 51.134-26.165l0.066-0.075 134.4-134.4c14.356-12.872 24.007-30.737 26.208-50.843l0.032-0.357c0.557-1.525 0.878-3.285 0.878-5.12s-0.322-3.595-0.912-5.227l0.034 0.107-188.8-188.16-39.68 17.92c-4.319 2.035-9.381 3.223-14.72 3.223-19.453 0-35.223-15.77-35.223-35.223 0-14.114 8.301-26.289 20.288-31.909l0.216-0.091 64-28.16c4.339-2.059 9.428-3.262 14.798-3.262 9.716 0 18.513 3.937 24.882 10.302l206.080 206.080c10.039 13.441 16.073 30.383 16.073 48.735 0 3.803-0.259 7.546-0.761 11.211l0.048-0.426c-1.157 39.582-17.565 75.119-43.522 101.122l0.002-0.002zM304 720.64c4.093-15.183 17.714-26.183 33.913-26.24h8.967c15.15 4.153 26.098 17.799 26.098 34.003 0 3.155-0.415 6.214-1.194 9.123l0.056-0.246-20.48 80c-3.046 16.597-17.399 29.007-34.651 29.007-19.44 0-35.2-15.76-35.2-35.2 0-4.204 0.737-8.235 2.088-11.972l-0.077 0.245zM156.16 615.040l78.72-17.92h7.68c18.191 1.503 32.386 16.637 32.386 35.087 0 15.457-9.963 28.588-23.818 33.319l-0.248 0.073-79.36 17.92c-1.928 0.374-4.144 0.589-6.411 0.589-19.44 0-35.2-15.76-35.2-35.2 0-16.026 10.71-29.55 25.362-33.807l0.249-0.062zM714.88 196.48c-3.046 16.597-17.399 29.007-34.651 29.007-19.44 0-35.2-15.76-35.2-35.2 0-4.204 0.737-8.235 2.088-11.972l-0.077 0.245 20.48-78.080c4.876-13.976 17.944-23.823 33.311-23.823 1.116 0 2.22 0.052 3.309 0.153l-0.139-0.011h8.96c15.15 4.153 26.098 17.799 26.098 34.003 0 3.155-0.415 6.214-1.194 9.123l0.056-0.246zM862.72 302.080l-78.72 17.92c-1.928 0.374-4.144 0.589-6.411 0.589-19.44 0-35.2-15.76-35.2-35.2 0-16.026 10.71-29.55 25.362-33.807l0.249-0.062 78.72-17.92h7.68c0.323-0.011 0.704-0.017 1.085-0.017 19.44 0 35.2 15.76 35.2 35.2 0 17.108-12.205 31.365-28.383 34.54l-0.223 0.036z" />
<glyph unicode="&#xe90b;" glyph-name="check-mark" d="M921.6 710.4c-25.6 25.6-70.4 19.2-89.6-6.4l-448-435.2-172.8 172.8c-25.6 25.6-64 25.6-89.6 0s-25.6-64 0-89.6l217.6-217.6c6.4-6.4 12.8-12.8 19.2-12.8 6.4-6.4 19.2-6.4 25.6-6.4 19.2 0 32 6.4 44.8 19.2l486.4 486.4c12.8 12.8 19.2 32 19.2 44.8 6.4 19.2 0 32-12.8 44.8z" />
<glyph unicode="&#xe90c;" glyph-name="circle-bottom" d="M512 972.8c-282.77 0-512-229.23-512-512s229.23-512 512-512c282.77 0 512 229.23 512 512v0c0 282.77-229.23 512-512 512v0zM512 28.8c-238.587 0-432 193.413-432 432s193.413 432 432 432c238.587 0 432-193.413 432-432v0c-0.364-238.441-193.559-431.636-431.965-432h-0.035zM512 374.4l171.52 178.56c6.039 5.287 14 8.513 22.714 8.513 19.087 0 34.56-15.473 34.56-34.56 0-8.075-2.769-15.503-7.41-21.386l0.056 0.073-198.4-204.8c-2.564-2.298-5.521-4.23-8.745-5.674l-0.215-0.086h-25.6c-3.439 1.53-6.396 3.462-8.992 5.788l0.032-0.028-202.24 204.8c-7.276 6.369-11.846 15.675-11.846 26.047 0 19.087 15.473 34.56 34.56 34.56 11.012 0 20.822-5.151 27.15-13.174l0.056-0.073z" />
<glyph unicode="&#xe90d;" glyph-name="circle-right" d="M512 972.8c-282.77 0-512-229.23-512-512s229.23-512 512-512c282.77 0 512 229.23 512 512v0c0 282.77-229.23 512-512 512v0zM512 28.8c-238.587 0-432 193.413-432 432s193.413 432 432 432c238.587 0 432-193.413 432-432v0c-0.364-238.441-193.559-431.636-431.965-432h-0.035zM588.8 448l-178.56-170.88c-5.287-6.039-8.513-14-8.513-22.714 0-19.087 15.473-34.56 34.56-34.56 8.075 0 15.503 2.769 21.386 7.41l-0.073-0.056 204.16 195.84c2.298 2.564 4.23 5.521 5.674 8.745l0.086 0.215c0.067 0.767 0.105 1.659 0.105 2.56s-0.038 1.793-0.112 2.675l0.008-0.115c0.86 2.284 1.358 4.924 1.358 7.68s-0.498 5.396-1.408 7.835l0.051-0.155c0.067 0.767 0.105 1.659 0.105 2.56s-0.038 1.793-0.112 2.675l0.008-0.115c-1.53 3.439-3.462 6.396-5.788 8.992l0.028-0.032-204.16 202.24c-6.369 7.276-15.675 11.846-26.047 11.846-19.087 0-34.56-15.473-34.56-34.56 0-11.012 5.151-20.822 13.174-27.15l0.073-0.056z" />
<glyph unicode="&#xe90e;" glyph-name="clone" d="M127.36 483.2h51.2v-64h-51.2v64zM127.36 611.2h51.2v-64h-51.2v64zM354.579 836.101l56.377 30.292 24.234-45.102-56.377-30.292-24.234 45.102zM615.68 833.92l48 17.28c-9.185 27.406-27.519 49.682-51.299 63.705l-0.541 0.295-24.96-44.8c13.69-8.139 23.927-20.87 28.677-36.027l0.123-0.453zM523.52 869.12c5.361 2.837 11.578 5.056 18.132 6.331l0.428 0.069-9.6 50.56c-12.544-2.591-23.678-6.797-33.885-12.468l0.605 0.308-32-17.28 24.32-45.44zM133.76 682.88l48.64-16.64c5.28 14.843 15.43 26.859 28.491 34.395l0.309 0.165-26.24 44.16c-23.753-13.979-41.776-35.525-50.948-61.271l-0.252-0.809zM225.28 152.96l-14.080-49.28c9.682-2.975 20.813-4.688 32.343-4.688 17.288 0 33.676 3.851 48.355 10.742l-0.697-0.294-21.76 46.72c-7.76-3.605-16.844-5.708-26.42-5.708-6.32 0-12.426 0.916-18.193 2.623l0.453-0.115zM241.893 775.308l56.377 30.292 24.234-45.102-56.377-30.292-24.234 45.102zM178.56 227.2h-50.56v-11.52c-0.001-0.152-0.001-0.332-0.001-0.512 0-23.659 7.172-45.643 19.461-63.897l-0.259 0.409 44.8 28.16c-6.426 9.81-10.249 21.829-10.249 34.74 0 0.387 0.003 0.773 0.010 1.158l-0.001-0.058zM127.36 355.2h51.2v-64h-51.2v64zM883.2 814.080c-17.894 10.107-39.292 16.062-62.080 16.062s-44.186-5.955-62.721-16.394l0.641 0.332-88.96-48v14.72h-51.2v-37.76l-170.88-90.24c-38.55-22.539-64.036-63.729-64.036-110.872 0-1.072 0.013-2.14 0.039-3.206l-0.003 0.158v-324.48l-56.32-30.72 24.32-44.8 32 20.48v-49.28c0-70.692 57.308-128 128-128v0c22.058 0.114 42.766 5.789 60.825 15.694l-0.665-0.334 311.040 169.6c38.313 22.415 63.708 63.249 64 110.038v428.842c-1.006 46.088-26.22 86.069-63.395 107.833l-0.605 0.327zM874.24 279.68c-0.047-20.841-11.537-38.988-28.519-48.495l-0.281-0.145-311.040-169.6c-7.741-4.411-17.008-7.012-26.883-7.012-30.398 0-55.040 24.642-55.040 55.040 0 0.215 0.001 0.43 0.004 0.645v-0.033 428.8c-0.008 0.354-0.013 0.771-0.013 1.189 0 21.041 11.807 39.325 29.157 48.587l0.296 0.144 311.040 167.040c7.583 4.191 16.624 6.658 26.241 6.658 30.398 0 55.040-24.642 55.040-55.040 0-0.091 0-0.181-0.001-0.272v0.014z" />
<glyph unicode="&#xe90f;" glyph-name="connect" d="M591.36 344.32c-6.425 9.336-17.051 15.379-29.089 15.379-19.44 0-35.2-15.76-35.2-35.2 0-1.586 0.105-3.147 0.308-4.678l-0.019 0.179 17.28-46.72-192-192c-2.731-1.233-5.922-1.952-9.28-1.952s-6.549 0.718-9.426 2.010l0.146-0.059c-16.965 4.399-31.5 13.123-42.852 24.93l-0.028 0.030-134.4 134.4c-14.356 12.872-24.007 30.737-26.208 50.843l-0.032 0.357c-0.488 1.433-0.769 3.084-0.769 4.8s0.282 3.367 0.801 4.908l-0.032-0.108 192 192 44.8-17.92c2.122-0.455 4.56-0.715 7.059-0.715 19.44 0 35.2 15.76 35.2 35.2 0 12.308-6.317 23.141-15.886 29.433l-0.133 0.082-64 26.88c-3.853 1.577-8.324 2.492-13.009 2.492-9.651 0-18.396-3.884-24.755-10.175l-207.357-207.357c-14.65-14.795-23.702-35.157-23.702-57.633 0-0.664 0.008-1.325 0.024-1.985l-0.002 0.098c1.848-40.036 19.419-75.638 46.634-101.041l0.086-0.079 134.4-134.4c20.745-21.044 47.27-36.338 77.001-43.307l1.079-0.213c3.456-0.383 7.462-0.601 11.52-0.601s8.064 0.218 12.009 0.644l-0.489-0.043c0.602-0.016 1.311-0.025 2.022-0.025 22.319 0 42.586 8.788 57.528 23.093l-0.030-0.029 206.080 206.080c6.459 6.384 10.458 15.244 10.458 25.038 0 4.336-0.784 8.489-2.218 12.325l0.080-0.243zM916.48 730.88l-134.4 134.4c-25.933 26.061-61.513 42.503-100.93 43.516l-0.19 0.004c-0.562 0.014-1.224 0.022-1.887 0.022-22.476 0-42.838-9.052-57.639-23.708l0.007 0.006-206.080-202.24c-6.365-6.369-10.302-15.166-10.302-24.882 0-5.37 1.202-10.459 3.353-15.012l-0.091 0.214 30.080-64c5.787-12.105 17.934-20.318 32-20.318 19.528 0 35.358 15.83 35.358 35.358 0 5.462-1.238 10.635-3.45 15.253l0.092-0.213-19.84 43.52 188.16 188.8c1.525 0.557 3.285 0.878 5.12 0.878s3.595-0.322 5.227-0.912l-0.107 0.034c20.463-2.233 38.328-11.884 51.134-26.165l0.066-0.075 134.4-134.4c14.356-12.872 24.007-30.737 26.208-50.843l0.032-0.357c0.557-1.525 0.878-3.285 0.878-5.12s-0.322-3.595-0.912-5.227l0.034 0.107-188.8-188.16-39.68 17.92c-4.319 2.035-9.381 3.223-14.72 3.223-19.453 0-35.223-15.77-35.223-35.223 0-14.114 8.301-26.289 20.288-31.909l0.216-0.091 64-28.16c4.339-2.059 9.428-3.262 14.798-3.262 9.716 0 18.513 3.937 24.882 10.302l206.080 206.080c10.039 13.441 16.073 30.383 16.073 48.735 0 3.803-0.259 7.546-0.761 11.211l0.048-0.426c-1.157 39.582-17.565 75.119-43.522 101.122l0.002-0.002zM341.76 289.92c6.377-6.412 15.205-10.38 24.96-10.38s18.583 3.968 24.958 10.378l0.002 0.002 275.84 276.48c6.388 6.388 10.339 15.213 10.339 24.96 0 19.495-15.804 35.299-35.299 35.299-9.747 0-18.572-3.951-24.96-10.339v0l-275.84-276.48c-6.412-6.377-10.38-15.205-10.38-24.96s3.968-18.583 10.378-24.958l0.002-0.002z" />
<glyph unicode="&#xe910;" glyph-name="copy" d="M684.8 531.2c0 57.6-32 89.6-89.6 89.6-51.2 0-108.8 0-160 0v89.6h-102.4v-89.6c-76.8 0-160 0-236.8 0-64 0-96-32-96-89.6 0-83.2 0-160 0-243.2s0-166.4 0-249.6c0-57.6 38.4-89.6 89.6-89.6 166.4 0 332.8 0 499.2 0 57.6 0 89.6 32 89.6 89.6 0 76.8 0 160 0 236.8h89.6v96h-83.2c0 51.2 0 102.4 0 160zM595.2 25.6c-172.8 0-339.2 0-505.6 0 0 166.4 0 332.8 0 505.6 166.4 0 339.2 0 505.6 0 0-166.4 0-332.8 0-505.6zM326.4 787.2v-6.4h96v83.2h89.6v102.4h-64c-12.8 0-19.2 0-32 0-44.8 0-83.2-32-89.6-70.4-6.4-25.6 0-51.2 0-70.4 0-12.8 0-25.6 0-38.4zM921.6 780.8h102.4v6.4c0 12.8 0 19.2 0 32 0 19.2 0 44.8 0 64 0 44.8-38.4 76.8-76.8 83.2-12.8 0-25.6 0-38.4 0s-19.2 0-32 0c-12.8 0-19.2 0-32 0h-6.4v-102.4h83.2v-83.2zM1024 448v6.4h-102.4v-83.2h-83.2v-102.4h89.6c6.4 0 6.4 0 12.8 0 44.8 6.4 76.8 38.4 83.2 76.8 0 19.2 0 44.8 0 64s0 25.6 0 38.4zM582.4 966.4h185.6v-96h-185.6v96zM921.6 710.4h96v-179.2h-96v179.2z" />
<glyph unicode="&#xe911;" glyph-name="create" d="M569.6 492.8v339.2h-89.6v-339.2h-339.2v-89.6h339.2v-339.2h89.6v339.2h339.2v89.6h-339.2z" />
<glyph unicode="&#xe912;" glyph-name="del" d="M842.24 189.44l-256 256 256 256c7.534 7.534 12.194 17.943 12.194 29.44 0 22.994-18.64 41.634-41.634 41.634-11.497 0-21.906-4.66-29.44-12.194v0l-256-256-256 256c-7.534 7.534-17.943 12.194-29.44 12.194-22.994 0-41.634-18.64-41.634-41.634 0-11.497 4.66-21.906 12.194-29.44v0l256-256-256-256c-7.534-7.534-12.194-17.943-12.194-29.44 0-22.994 18.64-41.634 41.634-41.634 11.497 0 21.906 4.66 29.44 12.194v0l256 256 256-256c7.534-7.534 17.943-12.194 29.44-12.194 22.994 0 41.634 18.64 41.634 41.634 0 11.497-4.66 21.906-12.194 29.44v0z" />
<glyph unicode="&#xe913;" glyph-name="dhcp" d="M458.88 881.92h-287.36c-0.016 0-0.034 0-0.052 0-19.44 0-35.2-15.76-35.2-35.2 0-0.675 0.019-1.346 0.057-2.012l-0.004 0.092v-285.44c0.36-19.163 15.979-34.56 35.194-34.56 0.002 0 0.004 0 0.006 0h287.36c19.44 0 35.2 15.76 35.2 35.2v0 284.8c0.033 0.574 0.052 1.245 0.052 1.92 0 19.44-15.76 35.2-35.2 35.2-0.018 0-0.037 0-0.055 0h0.003zM423.68 594.56h-216.96v216.96h216.96zM458.88 369.92h-287.36c-19.44 0-35.2-15.76-35.2-35.2v0-287.36c0-19.44 15.76-35.2 35.2-35.2v0h287.36c19.44 0 35.2 15.76 35.2 35.2v0 285.44c0.033 0.574 0.052 1.245 0.052 1.92 0 19.44-15.76 35.2-35.2 35.2-0.018 0-0.037 0-0.055 0h0.003zM423.68 83.2h-216.96v216.96h216.96zM960 472.96h-158.72v231.040c0 0.016 0 0.034 0 0.052 0 18.765-14.684 34.101-33.188 35.143l-0.092 0.004h-233.6c-19.44 0-35.2-15.76-35.2-35.2s15.76-35.2 35.2-35.2v0h196.48v-456.32h-196.48c-19.44 0-35.2-15.76-35.2-35.2s15.76-35.2 35.2-35.2h233.6c19.44 0 35.2 15.76 35.2 35.2v0 225.28h156.8c19.44 0 35.2 15.76 35.2 35.2s-15.76 35.2-35.2 35.2v0z" />
<glyph unicode="&#xe914;" glyph-name="edit" d="M943.36 687.36l-175.36 172.8c-19.323 18.262-45.463 29.488-74.225 29.488-30.679 0-58.375-12.773-78.059-33.291l-0.036-0.037-487.68-492.8c-6.328-6.363-10.24-15.135-10.24-24.82 0-0.049 0-0.098 0-0.147v0.008-271.36c0-19.44 15.76-35.2 35.2-35.2v0h268.8c0.415-0.018 0.903-0.028 1.392-0.028 9.699 0 18.482 3.923 24.849 10.269l492.799 492.799c19.567 19.387 32.058 45.886 33.273 75.296l0.007 0.224c0.054 1.232 0.084 2.677 0.084 4.13 0 28.509-11.798 54.262-30.777 72.644l-0.027 0.026zM185.6 102.4v128l128-128zM407.040 102.4c-1.592 3.186-3.513 5.925-5.777 8.339l0.017-0.019-209.28 215.040 384 384 221.44-221.44zM889.6 584.96l-44.8-44.8-222.080 220.8 44.8 44.8c6.96 7.971 17.14 12.978 28.49 12.978 9.434 0 18.060-3.46 24.678-9.179l-0.048 0.041 175.36-172.16c5.583-5.754 9.025-13.612 9.025-22.275 0-0.72-0.024-1.434-0.071-2.141l0.005 0.096c-1.432-11.382-7.075-21.231-15.291-28.104l-0.069-0.056z" />
<glyph unicode="&#xe915;" glyph-name="enlarge" d="M873.6 602.88c19.44 0 35.2 15.76 35.2 35.2v0 162.56c0 19.44-15.76 35.2-35.2 35.2v0h-164.48c-19.44 0-35.2-15.76-35.2-35.2s15.76-35.2 35.2-35.2v0h77.44l-153.6-153.6c-6.044-6.217-9.771-14.714-9.771-24.082 0-1.211 0.062-2.407 0.184-3.586l-0.012 0.148c-30.543 22.788-69.032 36.485-110.72 36.485s-80.177-13.697-111.213-36.837l0.493 0.351c0.109 1.031 0.171 2.227 0.171 3.438 0 9.368-3.727 17.865-9.779 24.090l0.008-0.008-156.8 154.24h80c19.44 0 35.2 15.76 35.2 35.2s-15.76 35.2-35.2 35.2v0h-160.64c-19.44 0-35.2-15.76-35.2-35.2v0-165.12c0-19.44 15.76-35.2 35.2-35.2s35.2 15.76 35.2 35.2v0 75.52l151.68-151.68c6.363-6.328 15.135-10.24 24.82-10.24 0.049 0 0.098 0 0.147 0h-0.008c-27.061-32.199-43.501-74.11-43.501-119.861 0-40.202 12.694-77.438 34.292-107.921l-0.391 0.582c-7.249-1.1-13.605-4.311-18.579-8.977l0.019 0.017-153.6-153.6v78.080c0 19.44-15.76 35.2-35.2 35.2s-35.2-15.76-35.2-35.2v0-161.28c0-19.44 15.76-35.2 35.2-35.2v0h163.2c19.44 0 35.2 15.76 35.2 35.2s-15.76 35.2-35.2 35.2h-75.52l151.68 151.68c4.469 4.61 7.644 10.499 8.925 17.066l0.035 0.214c31.22-24.671 71.15-39.575 114.56-39.575s83.34 14.903 114.951 39.873l-0.391-0.298c1.797-5.265 4.647-9.764 8.32-13.44l153.6-153.6h-78.080c-19.44 0-35.2-15.76-35.2-35.2s15.76-35.2 35.2-35.2h162.56c0.016 0 0.034 0 0.052 0 18.765 0 34.101 14.684 35.143 33.188l0.004 0.092v163.2c0 19.44-15.76 35.2-35.2 35.2s-35.2-15.76-35.2-35.2v0-77.44l-153.6 153.6c-4.013 3.831-8.966 6.713-14.477 8.262l-0.243 0.058c20.649 29.631 32.992 66.39 32.992 106.031 0 46.649-17.092 89.305-45.355 122.049l0.203-0.24c0.041 0 0.091 0 0.14 0 9.686 0 18.458 3.912 24.822 10.242l-0.002-0.002 155.52 154.24v-78.72c0-19.44 15.76-35.2 35.2-35.2v0zM512 311.68c-65.191 0.723-117.76 53.739-117.76 119.033 0 65.744 53.296 119.040 119.040 119.040 65.742 0 119.036-53.292 119.040-119.033v0c0-0.002 0-0.004 0-0.007 0-65.744-53.296-119.040-119.040-119.040-0.45 0-0.9 0.002-1.348 0.007l0.068-0.001z" />
<glyph unicode="&#xe916;" glyph-name="eth" d="M865.28 609.92h-78.72v250.88c0 19.44-15.76 35.2-35.2 35.2s-35.2-15.76-35.2-35.2v0-250.88h-76.16c-19.44 0-35.2-15.76-35.2-35.2v0-227.84c0-19.44 15.76-35.2 35.2-35.2v0h78.72v-250.88c0-19.44 15.76-35.2 35.2-35.2s35.2 15.76 35.2 35.2v0 250.88h78.72c19.44 0 35.2 15.76 35.2 35.2v0 227.84c0 0.028 0 0.060 0 0.093 0 19.44-15.76 35.2-35.2 35.2-0.901 0-1.794-0.034-2.678-0.1l0.118 0.007zM832 382.080h-159.36v157.44h159.36zM412.16 609.92h-78.72v250.88c0 19.44-15.76 35.2-35.2 35.2s-35.2-15.76-35.2-35.2v0-250.88h-78.72c-19.44 0-35.2-15.76-35.2-35.2v0-227.84c0-19.44 15.76-35.2 35.2-35.2v0h78.72v-250.88c0-19.44 15.76-35.2 35.2-35.2s35.2 15.76 35.2 35.2v0 250.88h78.72c0.19-0.004 0.415-0.006 0.64-0.006 19.44 0 35.2 15.76 35.2 35.2 0 0.002 0 0.004 0 0.006v0 227.84c0 0.002 0 0.004 0 0.006 0 19.44-15.76 35.2-35.2 35.2-0.225 0-0.45-0.002-0.674-0.006h0.034zM376.96 382.080h-157.44v157.44h157.44z" />
<glyph unicode="&#xe917;" glyph-name="fileedit" d="M960 355.84l-87.040 89.6c-13.163 12.972-31.246 20.982-51.2 20.982s-38.037-8.010-51.209-20.991l-255.991-255.991c-6.328-6.363-10.24-15.135-10.24-24.82 0-0.049 0-0.098 0-0.147v0.008-140.16c0-19.44 15.76-35.2 35.2-35.2v0h140.16c0.041 0 0.091 0 0.14 0 9.686 0 18.458 3.912 24.822 10.242l255.998 255.998c12.225 13.014 19.735 30.582 19.735 49.903 0 19.648-7.767 37.482-20.397 50.6l0.022-0.023zM664.32 59.52h-88.32v90.24l247.68 247.040 87.040-92.16zM425.6 110.72h-243.2v704h561.92v-289.92c0-19.44 15.76-35.2 35.2-35.2s35.2 15.76 35.2 35.2v0 320c0 19.44-15.76 35.2-35.2 35.2v0h-632.32c-19.44 0-35.2-15.76-35.2-35.2v0-768c0-19.44 15.76-35.2 35.2-35.2v0h278.4c19.44 0 35.2 15.76 35.2 35.2s-15.76 35.2-35.2 35.2v0zM613.12 624h-293.12c-19.44 0-35.2-15.76-35.2-35.2s15.76-35.2 35.2-35.2h293.12c19.44 0 35.2 15.76 35.2 35.2s-15.76 35.2-35.2 35.2v0zM613.12 460.8h-293.12c-19.44 0-35.2-15.76-35.2-35.2s15.76-35.2 35.2-35.2h293.12c19.44 0 35.2 15.76 35.2 35.2s-15.76 35.2-35.2 35.2v0z" />
<glyph unicode="&#xe918;" glyph-name="filter" d="M1017.6 915.2c-12.8 32-44.8 57.6-83.2 57.6h-832c-38.4 0-76.8-25.6-89.6-57.6s-6.4-76.8 19.2-102.4l326.4-358.4v-288c0-32 12.8-57.6 38.4-76.8l128-102.4c19.2-12.8 38.4-19.2 57.6-19.2 12.8 0 32 6.4 44.8 12.8 32 19.2 51.2 51.2 51.2 89.6v384l326.4 358.4c25.6 25.6 32 70.4 12.8 102.4zM128 864h774.4l-332.8-371.2v-409.6l-102.4 83.2v326.4l-339.2 371.2z" />
<glyph unicode="&#xe919;" glyph-name="ban" d="M512 908.8c-247.424 0-448-200.576-448-448s200.576-448 448-448c247.424 0 448 200.576 448 448v0c0 247.424-200.576 448-448 448v0zM512 76.8c-212.077 0-384 171.923-384 384s171.923 384 384 384c212.077 0 384-171.923 384-384v0c-1.812-210.697-173.035-380.8-383.987-380.8-0.005 0-0.009 0-0.014 0h0.001zM210.56 216.32l564.48 546.56 56.96-58.88-564.48-546.56z" />
<glyph unicode="&#xe91a;" glyph-name="fw" d="M887.040 840.96c-4.972 2.852-10.929 4.533-17.28 4.533s-12.308-1.682-17.452-4.624l0.172 0.091-512-279.68c-11.046-6.013-18.444-17.489-18.56-30.704v-533.136c0-0.016 0-0.035 0-0.053 0-19.44 15.76-35.2 35.2-35.2 6.351 0 12.308 1.682 17.452 4.624l-0.172-0.091 512 282.88c10.775 6.156 17.92 17.577 17.92 30.667 0 0.019 0 0.038 0 0.056v-0.003 530.56c-0.081 12.746-6.925 23.876-17.12 29.991l-0.16 0.089zM393.6 510.080l262.4 142.72v-101.76l-262.4-145.28zM393.6 339.84l105.6 56.96v-113.92l-105.6-58.24zM656 204.8l-262.4-147.2v104.96h6.4l256 141.44zM832 302.080l-119.68-64v99.2l119.68 65.92zM832 469.76l-275.2-152.96v109.44c0.030 0.478 0.048 1.037 0.048 1.6s-0.017 1.122-0.051 1.676l0.004-0.076 275.2 153.6zM832 648.96v0l-119.040-64v100.48l119.68 64zM742.4 949.76c-6.147 10.81-17.587 17.983-30.702 17.983-6.358 0-12.322-1.686-17.47-4.634l0.172 0.091-535.68-304c-10.775-6.156-17.92-17.577-17.92-30.667 0-0.019 0-0.038 0-0.056v0.003-544.64c0-19.44 15.76-35.2 35.2-35.2s35.2 15.76 35.2 35.2v0 524.16l517.76 293.76c10.81 6.147 17.983 17.587 17.983 30.702 0 6.358-1.686 12.322-4.634 17.47l0.091-0.172z" />
<glyph unicode="&#xe91b;" glyph-name="fwdrule" d="M994.56 636.8l-231.040 159.36c-17.28 12.16-47.36 3.2-47.36-13.44v-129.92c-93.154-1.771-176.903-40.615-237.384-102.343l-0.056-0.057c-59.397-70.924-95.47-163.142-95.47-263.787 0-8.744 0.272-17.423 0.809-26.032l-0.059 1.178c1.704-19.786 18.185-35.2 38.266-35.2 0.047 0 0.094 0 0.141 0h3.193c20.735 0.605 37.314 17.559 37.314 38.385 0 1.358-0.070 2.699-0.208 4.021l0.014-0.165c-0.358 5.833-0.562 12.651-0.562 19.517 0 80.015 27.705 153.559 74.046 211.562l-0.524-0.679c46.52 45.995 109.948 74.976 180.135 76.793l0.345 0.007v-112c0-16.64 29.44-25.6 47.36-13.44l231.040 159.36c4.76 2.671 7.924 7.686 7.924 13.44s-3.164 10.769-7.847 13.4l-0.077 0.040zM840.32 300.16c-21.208 0-38.4-17.192-38.4-38.4v0-93.44c0.131-1.533 0.205-3.318 0.205-5.12 0-35.346-28.654-64-64-64-0.072 0-0.144 0-0.216 0h-497.269c-0.061 0-0.133 0-0.205 0-35.346 0-64 28.654-64 64 0 1.802 0.074 3.587 0.221 5.351l-0.015-0.231v520.96c-0.131 1.533-0.205 3.318-0.205 5.12 0 35.346 28.654 64 64 64 0.072 0 0.144 0 0.216 0h255.989c21.208 0 38.4 17.192 38.4 38.4s-17.192 38.4-38.4 38.4h-256c-78.077-1.426-140.823-65.054-140.823-143.338 0-0.908 0.008-1.814 0.025-2.718l-0.002 0.136v-520.96c-0.015-0.768-0.023-1.674-0.023-2.582 0-78.284 62.746-141.912 140.69-143.336l0.133-0.002h497.28c78.077 1.426 140.823 65.054 140.823 143.338 0 0.908-0.008 1.814-0.025 2.718l0.002-0.136v93.44c0 21.208-17.192 38.4-38.4 38.4v0z" />
<glyph unicode="&#xe91c;" glyph-name="gv" d="M296.32 300.8h-174.72c-19.44 0-35.2-15.76-35.2-35.2v0-176c0-19.44 15.76-35.2 35.2-35.2v0h174.72c19.44 0 35.2 15.76 35.2 35.2v0 176c0 19.44-15.76 35.2-35.2 35.2v0zM261.12 124.8h-104.32v105.6h104.32zM599.040 300.8h-174.080c-19.44 0-35.2-15.76-35.2-35.2v0-176c0-19.44 15.76-35.2 35.2-35.2h174.080c19.44 0 35.2 15.76 35.2 35.2v0 176c0 19.44-15.76 35.2-35.2 35.2v0zM563.84 124.8h-103.68v105.6h103.68zM902.4 300.8h-174.72c-19.44 0-35.2-15.76-35.2-35.2v0-176c0-19.44 15.76-35.2 35.2-35.2v0h174.72c19.44 0 35.2 15.76 35.2 35.2v0 176c0 19.44-15.76 35.2-35.2 35.2v0zM867.2 124.8h-104.32v105.6h104.32zM192 308.48c17.673 0 32 14.327 32 32v0 80.64h249.6v-80.64c0-17.673 14.327-32 32-32s32 14.327 32 32v0 80.64h256v-80.64c0-17.673 14.327-32 32-32s32 14.327 32 32v0 112.64c0 17.673-14.327 32-32 32v0h-288v110.72h245.12c19.44 0 35.2 15.76 35.2 35.2v0 200.96c0 19.44-15.76 35.2-35.2 35.2v0h-553.6c-0.574 0.033-1.245 0.052-1.92 0.052-19.44 0-35.2-15.76-35.2-35.2 0-0.018 0-0.037 0-0.055v0.003-200.96c0-19.44 15.76-35.2 35.2-35.2v0h246.4v-110.72h-281.6c-17.673 0-32-14.327-32-32v0-112.64c0-17.673 14.327-32 32-32v0zM264.32 666.24v128h483.2v-128z" />
<glyph unicode="&#xe91d;" glyph-name="hd" d="M361.6 291.2c0-33.932-27.508-61.44-61.44-61.44s-61.44 27.508-61.44 61.44c0 33.932 27.508 61.44 61.44 61.44s61.44-27.508 61.44-61.44zM784 326.4h-336c-19.44 0-35.2-15.76-35.2-35.2s15.76-35.2 35.2-35.2h337.28c19.44 0 35.2 15.76 35.2 35.2s-15.76 35.2-35.2 35.2v0zM982.4 460.8l-128 316.8c-18.098 39.929-57.607 67.203-103.486 67.203-0.293 0-0.586-0.001-0.879-0.003h-435.155c-51.843-0.349-96.333-31.464-116.156-75.986l-0.324-0.814-134.4-307.2c-1.894-4.14-2.998-8.981-2.998-14.080s1.104-9.94 3.086-14.297l-0.088 0.217c-1.96-7.663-3.122-16.478-3.2-25.551v-231.729c-0.013-0.594-0.021-1.294-0.021-1.996 0-52.030 41.117-94.456 92.63-96.558l0.191-0.006h742.4c50.886 3.070 90.992 45.089 90.992 96.475 0 1.634-0.041 3.258-0.121 4.872l0.009-0.227v229.12c-0.078 9.122-1.24 17.937-3.364 26.369l0.164-0.769c1.48 3.743 2.338 8.079 2.338 12.615 0 5.661-1.336 11.009-3.71 15.748l0.092-0.203zM263.040 743.040c7.75 21.763 27.922 37.173 51.771 37.759l0.069 0.001h435.2c0.159 0.002 0.347 0.003 0.536 0.003 17.918 0 33.27-10.99 39.681-26.598l0.104-0.286 96.64-241.92h-724.48zM914.56 174.72c0-18.56-10.88-30.72-20.48-30.72h-740.48c-9.6 0-20.48 12.8-20.48 30.72v232.32c0 18.56 10.88 30.72 20.48 30.72h742.4c9.6 0 20.48-12.8 20.48-30.72z" />
<glyph unicode="&#xe91e;" glyph-name="help" d="M533.12 701.44c-88.926-0.362-160.918-72.354-161.28-161.245v-0.035c0-19.44 15.76-35.2 35.2-35.2s35.2 15.76 35.2 35.2v0c0 50.368 40.832 91.2 91.2 91.2s91.2-40.832 91.2-91.2v0c0-18.56-25.6-40.32-49.92-64-40.503-25.041-69.010-66.177-76.677-114.263l-0.123-0.937c0-19.44 15.76-35.2 35.2-35.2s35.2 15.76 35.2 35.2v0c0 19.84 26.24 42.88 51.84 64 39.963 24.895 67.894 65.895 74.778 113.698l0.102 0.862c0 89.426-72.494 161.92-161.92 161.92v0zM579.2 243.84c0-25.449-20.631-46.080-46.080-46.080s-46.080 20.631-46.080 46.080c0 25.449 20.631 46.080 46.080 46.080s46.080-20.631 46.080-46.080zM524.16 903.68c-247.424 0-448-200.576-448-448s200.576-448 448-448c247.424 0 448 200.576 448 448v0c-2.153 246.553-201.447 445.847-447.794 447.999l-0.206 0.001zM524.16 71.68c-212.077 0-384 171.923-384 384s171.923 384 384 384c212.077 0 384-171.923 384-384v0c0-212.077-171.923-384-384-384v0z" />
<glyph unicode="&#xe91f;" glyph-name="host" d="M843.52 880h-663.040c-48.668-1.055-87.717-40.758-87.717-89.58 0-0.907 0.013-1.811 0.040-2.712l-0.003 0.132v-519.040c0-0.006 0-0.013 0-0.021 0-48.81 39.028-88.504 87.58-89.578l0.1-0.002h302.080v-67.2h-156.16c-19.44 0-35.2-15.76-35.2-35.2s15.76-35.2 35.2-35.2h377.6c19.44 0 35.2 15.76 35.2 35.2s-15.76 35.2-35.2 35.2h-157.44v67.2h296.96c48.652 1.076 87.68 40.77 87.68 89.579 0 0.007 0 0.015 0 0.022v-0.001 519.040c0.024 0.769 0.037 1.673 0.037 2.58 0 48.823-39.049 88.525-87.619 89.579l-0.098 0.002zM860.8 268.8c0.069-0.622 0.108-1.342 0.108-2.072 0-10.093-7.537-18.426-17.29-19.678l-0.099-0.010h-663.040c-9.852 1.262-17.388 9.595-17.388 19.688 0 0.73 0.039 1.45 0.116 2.16l-0.008-0.088v115.2h697.6zM860.8 444.16h-697.6v343.68c-0.069 0.622-0.108 1.342-0.108 2.072 0 10.093 7.537 18.426 17.29 19.678l0.099 0.010h663.040c9.852-1.262 17.388-9.595 17.388-19.688 0-0.73-0.039-1.45-0.116-2.16l0.008 0.088z" />
<glyph unicode="&#xe920;" glyph-name="icp" d="M538.453-34.56c-3.942 0.042-7.616 1.147-10.763 3.040l0.096-0.054-386.56 223.573c-6.385 3.736-10.618 10.542-10.667 18.34v448.434c0.049 7.805 4.281 14.611 10.566 18.292l0.101 0.055 386.56 224c3.11 1.874 6.866 2.983 10.88 2.983s7.77-1.109 10.976-3.037l-0.096 0.054 371.627-224c6.182-3.809 10.24-10.542 10.24-18.222 0-0.044 0-0.087 0-0.131v0.007-448c0-0.037 0-0.081 0-0.124 0-7.68-4.059-14.413-10.148-18.17l-0.092-0.053-371.627-224c-3.112-1.877-6.87-2.988-10.888-2.988-0.072 0-0.144 0-0.216 0.001h0.011zM173.227 221.44l365.227-213.333 350.293 213.333v424.96l-350.293 213.333-365.227-213.333zM348.16 263.68c-11.782 0-21.333 9.551-21.333 21.333v0 268.373c0 11.782 9.551 21.333 21.333 21.333s21.333-9.551 21.333-21.333v0-268.373c0-11.782-9.551-21.333-21.333-21.333v0zM660.48 261.973c-11.782 0-21.333 9.551-21.333 21.333v0 270.933c0 11.782 9.551 21.333 21.333 21.333s21.333-9.551 21.333-21.333v0-270.933c0-11.782-9.551-21.333-21.333-21.333v0zM736 362.24h-72.107c-11.782 0-21.333 9.551-21.333 21.333s9.551 21.333 21.333 21.333v0h72.107c11.128 0.237 20.058 9.313 20.058 20.476 0 0.152-0.002 0.303-0.005 0.454v-0.023 85.333c0.003 0.128 0.005 0.279 0.005 0.431 0 11.162-8.93 20.239-20.036 20.475h-72.129c-11.782 0-21.333 9.551-21.333 21.333s9.551 21.333 21.333 21.333v0h72.107c34.692-0.241 62.721-28.42 62.721-63.145 0-0.151-0.001-0.301-0.002-0.451v0.023-85.333c0.001-0.127 0.001-0.278 0.001-0.428 0-34.725-28.030-62.904-62.699-63.145h-0.023zM573.44 261.973h-61.44c-34.987 0-62.72 38.827-62.72 87.893v136.96c0 49.493 27.307 87.893 62.72 87.893h62.293c11.782 0 21.333-9.551 21.333-21.333s-9.551-21.333-21.333-21.333v0h-62.293c-7.253 0-20.053-17.067-20.053-45.227v-136.96c0-28.16 12.8-45.227 20.053-45.227h62.293c11.782 0 21.333-9.551 21.333-21.333s-9.551-21.333-21.333-21.333v0z" />
<glyph unicode="&#xe921;" glyph-name="image" d="M515.84 908.8c-247.424 0-448-200.576-448-448s200.576-448 448-448c247.424 0 448 200.576 448 448v0c-2.153 246.553-201.447 445.847-447.794 447.999l-0.206 0.001zM515.84 76.8c-212.077 0-384 171.923-384 384s171.923 384 384 384c212.077 0 384-171.923 384-384v0c0-212.077-171.923-384-384-384v0zM515.84 622.080c-90.478-0.011-163.82-73.361-163.82-163.84 0-90.486 73.354-163.84 163.84-163.84s163.84 73.354 163.84 163.84c0 0.9-0.007 1.799-0.022 2.695l0.002-0.135c-1.441 89.378-74.234 161.28-163.82 161.28-0.007 0-0.014 0-0.021 0h0.001zM515.84 366.080c-51.602 0.005-93.431 41.838-93.431 93.44 0 51.605 41.835 93.44 93.44 93.44 51.155 0 92.71-41.108 93.43-92.092l0.001-0.068c0.022-0.763 0.035-1.66 0.035-2.56 0-51.605-41.835-93.44-93.44-93.44-0.012 0-0.025 0-0.037 0h0.002zM443.52 716.8c10.818 3.164 18.586 12.995 18.586 24.64 0 14.153-11.473 25.626-25.626 25.626-2.507 0-4.931-0.36-7.221-1.032l0.181 0.046c-83.080-24.483-147.997-86.452-176.070-165.831l-0.57-1.849c-0.895-2.499-1.412-5.381-1.412-8.385 0-11.208 7.203-20.734 17.232-24.201l0.18-0.054h8.32c0.033 0 0.071 0 0.11 0 11.159 0 20.651 7.14 24.155 17.101l0.055 0.179c23.313 64.891 75.464 114.306 140.578 133.383l1.502 0.377z" />
<glyph unicode="&#xe922;" glyph-name="ip" d="M522.24 908.8c-247.424 0-448-200.576-448-448s200.576-448 448-448c247.424 0 448 200.576 448 448v0c-2.153 246.553-201.447 445.847-447.794 447.999l-0.206 0.001zM768 752.64c-48.046-1.22-94.012-7.451-138.212-18.194l4.452 0.914c-10.878 39.85-22.018 72.425-34.863 104.126l2.223-6.206c64.22-13.659 120.383-41.882 166.975-81.111l-0.575 0.471zM597.76 391.68c-89.457 34.011-166.731 78.96-235.192 134.367l1.592-1.247c62.206 54.027 135.33 97.478 215.375 126.485l4.785 1.515c11.147-52.87 17.529-113.618 17.529-175.858 0-30.024-1.485-59.701-4.386-88.962l0.297 3.7zM522.24 844.8h5.12c15.696-35.48 30.374-78.116 41.609-122.129l1.271-5.871c-96.641-35.162-179.806-85.578-250.986-149.135l0.746 0.655c-37.266 34.921-70.884 72.802-100.806 113.564l-1.594 2.276c68.628 96.193 179.135 158.676 304.335 160.636l0.305 0.004zM138.24 460.8c0.134 60.632 14.538 117.869 40.029 168.572l-0.989-2.172c29.295-37.566 59.688-71.002 92.396-102.020l0.404-0.38c-43.289-43.334-82.644-90.614-117.475-141.248l-2.205-3.392c-5.591 24.194-8.85 52.007-8.96 80.563v0.077zM500.48 87.040c-0.088-0.863-0.138-1.866-0.138-2.88s0.050-2.017 0.148-3.005l-0.010 0.125c-144.061 8.943-265.835 96.058-324.126 219.108l-0.994 2.332c40.83 68.37 87.439 127.402 140.673 179.715l0.127 0.125c77.086-65.492 167.058-118.805 265.17-155.416l6.19-2.024c-16.761-89.495-45.884-169.313-85.949-242.272l2.109 4.192zM576 83.84c32.882 63.637 59.4 137.457 75.778 215.016l1.022 5.784c58.493-17.956 126.721-30.909 197.069-36.281l3.251-0.199c-59.137-98.389-158.665-167.334-275.061-184.077l-2.059-0.243zM663.68 369.92c4.419 34.122 6.942 73.59 6.942 113.647 0 67.63-7.19 133.58-20.847 197.129l1.105-6.135c40.714 10.004 87.456 15.742 135.537 15.742 15.591 0 31.042-0.603 46.33-1.788l-2.027 0.126c45.848-61.63 73.399-139.239 73.399-223.284 0-47.628-8.848-93.19-24.99-135.131l0.871 2.574c-79.369 3.671-154.195 16.981-225.291 38.814l6.411-1.694z" />
<glyph unicode="&#xe923;" glyph-name="ipedit" d="M128 888.96c-19.44 0-35.2-15.76-35.2-35.2v-512c0-19.44 15.76-35.2 35.2-35.2s35.2 15.76 35.2 35.2v512c0 19.44-15.76 35.2-35.2 35.2v0zM569.6 609.92v165.12c-3.403 64.426-56.472 115.377-121.441 115.377-2.307 0-4.6-0.064-6.875-0.191l0.316 0.014h-167.68c-19.44 0-35.2-15.76-35.2-35.2v0-516.48c0-19.44 15.76-35.2 35.2-35.2s35.2 15.76 35.2 35.2v156.16h133.76c1.577-0.073 3.425-0.115 5.283-0.115 64.947 0 118.002 50.917 121.424 115.010l0.013 0.304zM309.12 819.84h133.76c1.668 0.19 3.601 0.299 5.56 0.299 26.254 0 47.949-19.516 51.37-44.832l0.030-0.267v-165.12c-3.451-25.583-25.146-45.099-51.4-45.099-1.959 0-3.892 0.109-5.794 0.32l0.234-0.021h-133.76zM994.56 308.48c-2.462 12.188-10.951 21.949-22.157 26.16l-0.243 0.080-396.16 143.36c-3.675 1.422-7.927 2.246-12.372 2.246-8.153 0-15.659-2.772-21.626-7.425l0.078 0.059c-8.321-6.501-13.62-16.536-13.62-27.809 0-1.251 0.065-2.486 0.192-3.703l-0.013 0.152 47.36-432c1.762-17.949 16.777-31.859 35.041-31.859 8.609 0 16.497 3.091 22.613 8.223l-0.054-0.044 101.12 84.48 85.76-93.44c6.344-6.222 15.044-10.062 24.64-10.062s18.296 3.84 24.646 10.068l-0.006-0.006 100.48 90.88c7.431 6.488 12.1 15.979 12.1 26.56s-4.669 20.072-12.059 26.524l-0.042 0.036-82.56 71.040 97.28 87.040c6.152 6.331 9.945 14.983 9.945 24.52 0 1.735-0.126 3.441-0.368 5.11l0.023-0.19zM808.96 214.4c-7.431-6.488-12.1-15.979-12.1-26.56s4.669-20.072 12.059-26.524l0.042-0.036 82.56-71.040-44.8-40.32-84.48 90.88c-6.459 7.052-15.709 11.458-25.987 11.458-8.652 0-16.576-3.122-22.705-8.301l0.052 0.043-76.16-64-30.080 312.96 284.8-103.68z" />
<glyph unicode="&#xe924;" glyph-name="last" d="M416.64 460.8l320 309.12c19.572 11.197 32.548 31.952 32.548 55.739 0 35.346-28.654 64-64 64-22.801 0-42.817-11.923-54.153-29.875l-0.155-0.264-366.080-353.92v-3.84c-4.037-4.599-7.466-9.873-10.077-15.6l-0.163-0.4c-0.114-1.342-0.178-2.903-0.178-4.48s0.065-3.139 0.192-4.683l-0.013 0.203c-0.24-2.017-0.376-4.352-0.376-6.72s0.137-4.703 0.403-7l-0.026 0.28c-0.225-2.016-0.354-4.353-0.354-6.72s0.129-4.704 0.379-7.005l-0.025 0.285c-0.114-1.342-0.178-2.903-0.178-4.48s0.065-3.139 0.192-4.683l-0.013 0.203c2.774-6.127 6.203-11.401 10.303-16.073l-0.063 0.073v-3.84l368.64-353.28c11.492-18.215 31.508-30.139 54.308-30.139 35.346 0 64 28.654 64 64 0 23.786-12.976 44.542-32.236 55.574l-0.313 0.165z" />
<glyph unicode="&#xe925;" glyph-name="lb" d="M622.080 224h-199.040c-19.44 0-35.2-15.76-35.2-35.2s15.76-35.2 35.2-35.2h199.040c19.44 0 35.2 15.76 35.2 35.2s-15.76 35.2-35.2 35.2v0zM320 332.8c5.348-3.45 11.881-5.5 18.893-5.5 12.459 0 23.406 6.473 29.662 16.239l0.084 0.141 95.36 152.96c3.44 5.347 5.484 11.875 5.484 18.88 0 19.465-15.779 35.244-35.244 35.244-12.459 0-23.408-6.465-29.676-16.223l-0.084-0.14-98.56-154.24c-2.598-4.788-4.125-10.483-4.125-16.534 0-13.205 7.271-24.711 18.027-30.734l0.178-0.091zM599.68 547.84c-10.168-6.292-16.84-17.383-16.84-30.033 0-6.893 1.981-13.324 5.406-18.753l-0.086 0.145 98.56-158.72c5.959-11.471 17.75-19.173 31.339-19.173 19.44 0 35.2 15.76 35.2 35.2 0 7.952-2.637 15.288-7.084 21.182l0.064-0.089-98.56 158.72c-6.322 10.007-17.325 16.556-29.857 16.556-6.702 0-12.966-1.873-18.298-5.124l0.155 0.088zM245.76 345.6c-5.049 2.965-11.12 4.716-17.6 4.716s-12.551-1.751-17.766-4.806l0.166 0.090-115.2-64c-10.417-6.24-17.283-17.468-17.283-30.299 0-0.148 0.001-0.296 0.003-0.444v0.022-133.12c-0.002-0.125-0.003-0.273-0.003-0.421 0-12.831 6.865-24.059 17.123-30.21l115.36-64.089c5.049-2.965 11.12-4.716 17.6-4.716s12.551 1.751 17.766 4.806l-0.166-0.090 115.2 64c10.417 6.24 17.283 17.468 17.283 30.299 0 0.148-0.001 0.296-0.003 0.444v-0.022 130.56c0.002 0.125 0.003 0.273 0.003 0.421 0 12.831-6.865 24.059-17.123 30.21l-0.16 0.089zM309.76 136.32l-80-46.080-80 46.080v91.52l80 46.080 80-46.080zM384 620.8l115.2-64c5.049-2.965 11.12-4.716 17.6-4.716s12.551 1.751 17.766 4.806l-0.166-0.090 115.2 64c11.84 5.837 19.842 17.82 19.842 31.673 0 0.115-0.001 0.23-0.002 0.345v-0.018 131.2c0.002 0.125 0.003 0.273 0.003 0.421 0 12.831-6.865 24.059-17.123 30.21l-115.36 64.089c-5.049 2.965-11.12 4.716-17.6 4.716s-12.551-1.751-17.766-4.806l0.166 0.090-117.76-64c-10.417-6.24-17.283-17.468-17.283-30.299 0-0.148 0.001-0.296 0.003-0.444v0.022-131.2c-0.026-0.501-0.040-1.089-0.040-1.679 0-12.846 6.882-24.085 17.16-30.232l0.161-0.089zM436.48 763.52l80 46.080 80-46.080v-92.16l-80-46.080-76.8 46.080zM949.76 279.040l-117.76 66.56c-5.049 2.965-11.12 4.716-17.6 4.716s-12.551-1.751-17.766-4.806l0.166 0.090-115.2-64c-10.417-6.24-17.283-17.468-17.283-30.299 0-0.148 0.001-0.296 0.003-0.444v0.022-133.12c-0.002-0.125-0.003-0.273-0.003-0.421 0-12.831 6.865-24.059 17.123-30.21l115.36-64.089c5.049-2.965 11.12-4.716 17.6-4.716s12.551 1.751 17.766 4.806l-0.166-0.090 115.2 64c10.417 6.24 17.283 17.468 17.283 30.299 0 0.148-0.001 0.296-0.003 0.444v-0.022 130.56c0.038 0.612 0.060 1.328 0.060 2.049 0 11.781-5.788 22.21-14.675 28.6l-0.105 0.072zM896 135.68l-80-46.080-80 46.080v92.16l80 46.080 80-46.080z" />
<glyph unicode="&#xe926;" glyph-name="lis" d="M832 572.16c0.412 2.020 0.647 4.343 0.647 6.72s-0.236 4.7-0.685 6.945l0.038-0.225c0.085 2.709 0.133 5.895 0.133 9.093 0 171.783-139.257 311.040-311.040 311.040-3.197 0-6.384-0.048-9.558-0.144l0.465 0.011c-173.415-2.854-313.111-143.223-314.879-316.631l-0.001-0.169c-0.452-2.116-0.711-4.548-0.711-7.040s0.259-4.924 0.751-7.269l-0.040 0.229c-81.606-4.86-145.946-72.227-145.946-154.622 0-0.991 0.009-1.979 0.028-2.966l-0.002 0.148v-128c0-85.891 69.629-155.52 155.52-155.52h8.96c85.891 0 155.52 69.629 155.52 155.52v0 128c-0.283 69.545-46.359 128.253-109.623 147.552l-1.097 0.288c3.652 4.988 5.99 11.146 6.395 17.825l0.005 0.095c0 10.24 13.44 248.96 249.6 248.96s251.52-238.080 251.52-248.32c0.478-7.067 3.051-13.454 7.097-18.635l-0.057 0.075c-64.361-19.587-110.437-78.295-110.72-147.807v-128.033c0.333-70.441 47.639-129.743 112.187-148.213l1.093-0.267c-24.691-32.001-63.052-52.414-106.182-52.414-6.34 0-12.578 0.441-18.683 1.294l0.704-0.081c-5.909-0.184-11.397-1.823-16.168-4.569l0.168 0.089c-7.606 24.799-30.167 42.574-56.924 42.88h-68.516c-32.891-1.657-59.143-27.909-60.794-60.648l-0.006-0.152v-4.48c1.657-32.891 27.909-59.143 60.648-60.794l0.152-0.006h68.48c20.538 0.176 38.574 10.726 49.143 26.66l0.137 0.22c6.175-5.839 14.491-9.47 23.654-9.6h0.026c128 0 184.32 69.12 199.68 118.4 73.214 13.519 127.947 76.84 128 152.954v128.006c-0.649 83.011-66.503 150.432-148.831 153.591l-0.289 0.009zM300.8 417.28v-128c-0.363-46.734-38.332-84.48-85.118-84.48-0.001 0-0.002 0-0.003 0h-9.6c-46.739 0.357-84.49 38.329-84.49 85.118 0 0.451 0.004 0.901 0.010 1.35l-0.001-0.068v128c1.069 45.962 38.409 82.855 84.447 83.2h8.993c0.19 0.002 0.415 0.002 0.64 0.002 47.010 0 85.12-38.11 85.12-85.12 0-0.001 0-0.002 0-0.003v0zM912.64 289.28c-0.361-46.736-38.331-84.482-85.118-84.482-0.226 0-0.452 0.001-0.677 0.003h-8.925c-47.010 0-85.12 38.11-85.12 85.12v0 128c0 47.010 38.11 85.12 85.12 85.12v0h8.96c47.010 0 85.12-38.11 85.12-85.12v0z" />
<glyph unicode="&#xe927;" glyph-name="log" d="M908.8 830.72h-153.6v46.080c-1.693 18.014-16.74 32-35.054 32-0.051 0-0.102 0-0.154 0h-405.112c-19.44 0-35.2-15.76-35.2-35.2v-45.44h-151.68c-19.44 0-35.2-15.76-35.2-35.2v0-753.28c0-19.44 15.76-35.2 35.2-35.2v0h482.56c0.644-0.042 1.397-0.066 2.155-0.066 8.722 0 16.704 3.172 22.853 8.427l-0.049-0.040 297.6 304.64c3.681 4.224 6.368 9.411 7.637 15.13l0.043 0.23v7.68c0.048 0.67 0.075 1.452 0.075 2.24s-0.027 1.57-0.081 2.344l0.006-0.104v448c0.066 0.807 0.103 1.747 0.103 2.696 0 18.35-14.042 33.421-31.966 35.053l-0.137 0.010zM350.080 841.6h334.72v-119.040h-334.72zM645.76 126.72v183.040h179.2zM873.6 382.72h-263.040c-19.204-0.308-34.654-15.947-34.654-35.196 0-0.902 0.034-1.797 0.101-2.682l-0.007 0.118v-268.16h-414.72v683.52h118.4v-72.96c0.36-19.163 15.979-34.56 35.194-34.56 0.002 0 0.004 0 0.006 0h404.48c19.44 0 35.2 15.76 35.2 35.2v0 72.32h118.4z" />
<glyph unicode="&#xe928;" glyph-name="mail" d="M883.84 816.64h-718.72c-50.624-0.362-91.522-41.483-91.522-92.158 0-0.226 0.001-0.451 0.002-0.677v0.035-522.88c-0.001-0.191-0.002-0.416-0.002-0.642 0-50.674 40.899-91.796 91.488-92.158h718.754c50.698 0.722 91.52 41.989 91.52 92.791 0 0.003 0 0.006 0 0.009v0 522.88c0 0.003 0 0.006 0 0.009 0 50.802-40.821 92.069-91.452 92.79l-0.068 0.001zM165.12 746.24h718.72c10.452-0.519 18.93-8.339 20.465-18.439l0.015-0.121-298.88-295.040c-22.495-16.839-50.865-26.962-81.6-26.962s-59.105 10.124-81.958 27.219l0.358-0.256-297.6 295.040c1.55 10.221 10.028 18.041 20.429 18.558l0.051 0.002zM145.28 188.16c-0.272 1.347-0.428 2.895-0.428 4.48s0.156 3.133 0.453 4.631l-0.025-0.151v432l211.2-210.56zM228.48 174.72l178.56 195.84c31.895-22.878 71.509-36.895 114.351-37.757l0.209-0.003c44.557 1.196 85.46 15.887 119.028 40.111l-0.628-0.431 179.2-196.48zM905.6 197.12c0.272-1.347 0.428-2.895 0.428-4.48s-0.156-3.133-0.453-4.631l0.025 0.151-210.56 230.4 213.12 209.92z" />
<glyph unicode="&#xe929;" glyph-name="mon" d="M874.88 899.2h-714.88c-50.862-1.408-91.556-42.975-91.556-94.046 0-0.912 0.013-1.821 0.039-2.727l-0.003 0.133v-556.8c-0.023-0.773-0.036-1.682-0.036-2.594 0-51.071 40.694-92.638 91.426-94.043l0.13-0.003h714.88c50.862 1.408 91.556 42.975 91.556 94.046 0 0.912-0.013 1.821-0.039 2.727l0.003-0.133v556.8c0.023 0.773 0.036 1.682 0.036 2.594 0 51.071-40.694 92.638-91.426 94.043l-0.13 0.003zM896 245.76c0.059-0.635 0.093-1.373 0.093-2.119 0-12.336-9.185-22.527-21.089-24.107l-0.124-0.013h-714.88c-12.028 1.594-21.213 11.785-21.213 24.121 0 0.746 0.034 1.484 0.099 2.213l-0.007-0.094v187.52h141.44c13.224 0.068 24.544 8.147 29.362 19.629l0.078 0.211 35.84 89.6 102.4-174.72c5.604-9.578 15.812-15.927 27.51-16h0.010c12.069 0.478 22.376 7.57 27.436 17.734l0.084 0.186 124.16 252.8 50.56-167.68c4.006-13.422 16.24-23.040 30.72-23.040v0h187.52zM896 496h-163.84l-67.2 220.8c-2.632 12.583-12.377 22.328-24.752 24.923l-0.208 0.037c-0.655 0.047-1.42 0.074-2.191 0.074-12.686 0-23.682-7.238-29.084-17.809l-0.086-0.185-136.32-272-104.32 179.84c-5.631 9.652-15.937 16.034-27.732 16.034-13.543 0-25.12-8.413-29.792-20.297l-0.075-0.217-54.4-129.92h-117.12v305.28c-0.059 0.635-0.093 1.373-0.093 2.119 0 12.336 9.185 22.527 21.089 24.107l0.124 0.013h714.88c12.028-1.594 21.213-11.785 21.213-24.121 0-0.746-0.034-1.484-0.099-2.213l0.007 0.094zM723.2 71.040h-403.2c-19.44 0-35.2-15.76-35.2-35.2s15.76-35.2 35.2-35.2h403.2c19.44 0 35.2 15.76 35.2 35.2s-15.76 35.2-35.2 35.2v0z" />
<glyph unicode="&#xe92a;" glyph-name="more" d="M137.6 790.4h775.040v-83.2h-775.040v83.2zM137.6 470.4h775.040v-83.2h-775.040v83.2zM137.6 150.4h775.040v-83.2h-775.040v83.2z" />
<glyph unicode="&#xe92b;" glyph-name="mysql" d="M952.32 442.88c0.063 0.766 0.099 1.659 0.099 2.56s-0.036 1.794-0.106 2.677l0.007-0.117v225.28c0.189 1.346 0.297 2.9 0.297 4.48s-0.108 3.134-0.317 4.657l0.020-0.177c0.405 3.648 0.636 7.877 0.636 12.16s-0.231 8.512-0.682 12.676l0.045-0.516c0 117.76-176.64 206.72-410.24 206.72s-410.24-88.96-410.24-206.72c-0.163-2.297-0.256-4.978-0.256-7.68s0.093-5.383 0.276-8.038l-0.020 0.358c-0.117-1.056-0.183-2.28-0.183-3.52s0.067-2.464 0.196-3.67l-0.013 0.15v-467.2c0-117.12 176.64-204.16 410.24-204.16s410.24 88.96 410.24 206.72c0.063 0.766 0.099 1.659 0.099 2.56s-0.036 1.794-0.106 2.677l0.007-0.117v208.64c0.076 1.433 0.119 3.112 0.119 4.8s-0.043 3.367-0.129 5.034l0.010-0.234zM202.24 588.8c88.564-55.848 196.307-88.986 311.791-88.986 9.866 0 19.675 0.242 29.422 0.72l-1.373-0.054c8.094-0.396 17.579-0.621 27.117-0.621 115.575 0 223.415 33.119 314.546 90.385l-2.463-1.444v-149.12c-5.76-42.88-136.32-106.88-339.2-106.88s-339.84 64-339.84 110.080zM542.080 844.8c192 0 339.84-71.68 339.84-136.32s-145.28-137.6-339.84-137.6-339.84 71.68-339.84 135.68 145.28 138.24 339.84 138.24zM542.080 83.2c-192 0-339.84 71.68-339.84 136.32v118.4c90.868-47.924 198.588-76.054 312.877-76.054 9.483 0 18.921 0.194 28.309 0.577l-1.346-0.044c8.387-0.368 18.224-0.578 28.11-0.578 113.548 0 220.635 27.661 314.89 76.613l-3.8-1.795v-119.040s0 0 0 0c-3.2-65.92-146.56-136.32-339.2-136.32z" />
<glyph unicode="&#xe92c;" glyph-name="nas" d="M973.44 332.8c-19.396 24.179-48.939 39.527-82.067 39.527-22.188 0-42.768-6.885-59.72-18.634l0.348 0.228c-47.456-27.17-102.608-47.855-161.144-58.992l-3.336-0.528c-14.080 35.84-58.24 64-128 87.68-96.64 30.080-230.4 40.96-289.28 0-51.328-26.928-112.122-42.773-176.606-42.88h-0.034c-19.44 0-35.2-15.76-35.2-35.2s15.76-35.2 35.2-35.2v0c79.081 0.109 153.379 20.489 218.006 56.219l-2.326-1.179c30.627 9.146 65.819 14.409 102.24 14.409 43.147 0 84.569-7.387 123.069-20.965l-2.59 0.796c64-19.84 83.2-40.32 85.76-46.72 1.887-4.103 3.242-8.863 3.819-13.86l0.021-0.22c-21.004-4.911-45.121-7.727-69.896-7.727-39.22 0-76.793 7.056-111.517 19.967l2.213-0.721c-3.215 1.069-6.915 1.685-10.76 1.685-19.44 0-35.2-15.76-35.2-35.2 0-16.675 11.595-30.642 27.162-34.278l0.238-0.047c44.667-13.089 96.223-21.394 149.46-23.017l0.94-0.023c4.082-0.432 8.818-0.678 13.612-0.678 33.964 0 65.041 12.363 88.976 32.835l-0.188-0.157c3.026 3.564 5.783 7.546 8.13 11.785l0.19 0.375c75.626 12.451 143.427 37.066 204.595 71.974l-2.995-1.574c6.378 4.893 14.471 7.841 23.253 7.841 6.218 0 12.091-1.478 17.287-4.102l-0.22 0.101c6.707-3.926 11.852-9.898 14.641-17.049l0.079-0.231c-37.76-33.28-215.040-160.64-320-181.76-14.042-1.171-30.393-1.839-46.9-1.839-51.529 0-101.538 6.506-149.251 18.742l4.151-0.903c-50.296 13.966-108.052 21.993-167.682 21.993-48.057 0-94.896-5.213-139.983-15.105l4.305 0.792c-18.441-1.226-32.934-16.484-32.934-35.127 0-19.44 15.76-35.2 35.2-35.2 7.536 0 14.52 2.368 20.246 6.401l-0.112-0.074c33.75 6.771 72.549 10.646 112.253 10.646 55.692 0 109.603-7.624 160.746-21.886l-4.2 1c48.276-10.701 104.757-18.039 162.519-20.416l1.961-0.064c1.102-0.016 2.403-0.026 3.706-0.026 17.246 0 34.109 1.64 50.442 4.772l-1.668-0.266c135.68 26.88 337.92 182.4 360.96 205.44 10.789 12.64 17.354 29.171 17.354 47.234 0 19.083-7.326 36.454-19.319 49.456l0.046-0.050zM339.2 460.8h487.68c19.44 0 35.2 15.76 35.2 35.2v0 299.52c0 19.44-15.76 35.2-35.2 35.2v0h-264.96l-45.44 53.76c-6.49 7.467-16.003 12.161-26.613 12.161-0.094 0-0.188 0-0.281-0.001h-191.986c-0.062 0-0.136 0.001-0.21 0.001-19.44 0-35.2-15.76-35.2-35.2 0-1.353 0.076-2.688 0.225-4.002l-0.015 0.161 42.88-364.8c1.648-17.633 16.086-31.406 33.862-31.998l0.058-0.002zM472.96 825.6l45.44-53.76c6.49-7.467 16.003-12.161 26.613-12.161 0.094 0 0.188 0 0.281 0.001h246.386v-227.2h-421.12l-34.56 294.4z" />
<glyph unicode="&#xe92d;" glyph-name="next" d="M607.36 460.8l-320-309.12c-19.572-11.197-32.548-31.952-32.548-55.739 0-35.346 28.654-64 64-64 22.801 0 42.817 11.923 54.153 29.875l0.155 0.264 366.080 353.92v3.84c4.037 4.599 7.466 9.873 10.077 15.6l0.163 0.4c0.114 1.342 0.178 2.903 0.178 4.48s-0.065 3.139-0.192 4.683l0.013-0.203c0.24 2.017 0.376 4.352 0.376 6.72s-0.137 4.703-0.403 7l0.026-0.28c0.225 2.016 0.354 4.353 0.354 6.72s-0.129 4.704-0.379 7.005l0.025-0.285c0.114 1.342 0.178 2.903 0.178 4.48s-0.065 3.139-0.192 4.683l0.013-0.203c-2.774 6.127-6.203 11.401-10.303 16.073l0.063-0.073v3.84l-368.64 359.040c-11.492 18.215-31.508 30.139-54.308 30.139-35.346 0-64-28.654-64-64 0-23.786 12.976-44.542 32.236-55.574l0.313-0.165z" />
<glyph unicode="&#xe92e;" glyph-name="off" d="M862.080 647.040c-40.842 63.859-96.705 114.798-162.765 148.663l-2.355 1.097c-4.054 1.806-8.784 2.857-13.76 2.857s-9.706-1.052-13.981-2.945l0.221 0.087c-9.242-3.066-16.672-9.456-21.024-17.721l-0.096-0.199c-1.822-4.152-2.882-8.992-2.882-14.080s1.060-9.928 2.971-14.311l-0.090 0.231c2.715-9.248 9.242-16.612 17.717-20.399l0.203-0.081c112.454-57.156 188.16-171.991 188.16-304.508 0-188.042-152.438-340.48-340.48-340.48s-340.48 152.438-340.48 340.48c0 132.518 75.706 247.353 186.227 303.615l1.933 0.893c11.593 6.094 19.364 18.054 19.364 31.829 0 6.93-1.967 13.4-5.373 18.884l0.088-0.153c-4.008 8.577-11.314 15.048-20.244 17.856l-0.236 0.064c-4.152 1.822-8.992 2.882-14.080 2.882s-9.928-1.060-14.311-2.971l0.231 0.090c-136.388-69.457-228.184-208.814-228.184-369.612 0-57.881 11.894-112.984 33.372-162.998l-1.028 2.69c21.671-51.058 51.494-94.628 88.297-131.178l0.023-0.022c37.004-36.647 80.706-66.612 129.093-87.883l2.747-1.077c47.409-20.571 102.625-32.537 160.637-32.537 114.285 0 217.723 46.443 292.47 121.484l0.013 0.013c74.738 74.805 120.96 178.111 120.96 292.212 0 0.094 0 0.188 0 0.282v-0.015c-0.48 81.456-24.26 157.261-65.003 221.205l1.003-1.685zM512 570.24c20.147 0 36.48 16.333 36.48 36.48v0 264.96c0 20.147-16.333 36.48-36.48 36.48s-36.48-16.333-36.48-36.48v0-264.96c0.353-20.004 16.476-36.127 36.447-36.48h0.033z" />
<glyph unicode="&#xe92f;" glyph-name="os-centos" d="M857.6 268.8l-153.6-147.2h153.6zM704 793.6l147.2-147.2v147.2zM179.2 121.6h147.2l-147.2 147.2zM172.8 793.6v-153.6l153.6 153.6zM0 454.4l140.8-134.4v275.2zM512-51.2l140.8 140.8h-275.2zM512 966.4l-134.4-140.8h275.2zM1024 454.4l-140.8 140.8v-275.2zM492.8 531.2h6.4v256h-121.6l-83.2-76.8 179.2-179.2c6.4 0 12.8 0 19.2 0zM441.6 486.4c0 6.4 0 6.4 0 12.8l-172.8 179.2-89.6-83.2v-121.6h262.4v12.8zM441.6 428.8v0l-262.4 6.4v-121.6l83.2-83.2 185.6 185.6c0 6.4-6.4 6.4-6.4 12.8zM492.8 384c-6.4 0-6.4 0-12.8 0l-185.6-179.2 83.2-83.2h121.6v262.4h-6.4zM556.8 390.4c-6.4 0-6.4 0-12.8 0h-6.4v-262.4h115.2l83.2 83.2-179.2 179.2zM588.8 435.2v0c0-12.8 0-19.2-6.4-19.2l179.2-179.2 83.2 83.2v115.2h-256zM768 678.4l-179.2-179.2c0-6.4 0-6.4 0-12.8v-12.8h256v121.6l-76.8 83.2zM544 531.2c6.4 0 12.8 0 19.2-6.4l179.2 179.2-83.2 83.2h-121.6v-256h6.4z" />
<glyph unicode="&#xe930;" glyph-name="os-debian" d="M582.4 972.8c-19.2 0-32 0-51.2 0-172.8 6.4-345.6-121.6-403.2-294.4-64-204.8-44.8-352 83.2-531.2 134.4-185.6 326.4-192 364.8-192 12.8 0 25.6 0 38.4 0 19.2 6.4 25.6 6.4 25.6 12.8s-12.8 12.8-44.8 25.6c-108.8 32-172.8 83.2-224 128v0c-76.8 51.2-166.4 211.2-153.6 364.8 12.8 179.2 96 307.2 224 345.6 32 12.8 64 12.8 96 12.8 96 0 179.2-44.8 236.8-134.4 70.4-102.4 44.8-179.2-6.4-256-38.4-57.6-96-64-134.4-64-57.6 0-115.2 25.6-134.4 44.8s-38.4 57.6-38.4 96c0 32 19.2 64 51.2 83.2 19.2 12.8 38.4 19.2 51.2 19.2 25.6 0 51.2-12.8 70.4-25.6s32-25.6 51.2-19.2c12.8 6.4 12.8 12.8 12.8 19.2 0 25.6-32 64-89.6 83.2-19.2 12.8-38.4 12.8-57.6 12.8-70.4 0-128-51.2-147.2-76.8-12.8-19.2-44.8-83.2-32-153.6 6.4-57.6 38.4-108.8 89.6-140.8 57.6-38.4 121.6-57.6 185.6-57.6 76.8 0 140.8 32 172.8 57.6 64 57.6 128 128 121.6 281.6-12.8 153.6-140.8 332.8-358.4 358.4z" />
<glyph unicode="&#xe931;" glyph-name="os-rhel" d="M460.8 742.4c-25.6 0-44.8-6.4-57.6-6.4-19.2 0-25.6 6.4-38.4 12.8 0 6.4-19.2 12.8-25.6-6.4s6.4-44.8 19.2-44.8c0 0 25.6-44.8 38.4-19.2 12.8 6.4 19.2 12.8 76.8 19.2 25.6 6.4 32 19.2 32 25.6 0 12.8-19.2 19.2-44.8 19.2zM608 140.8c-12.8-6.4-25.6 0-32 6.4-19.2 12.8-32 6.4-44.8 6.4 0-12.8 0-19.2 12.8-19.2s12.8 0 25.6-6.4c19.2-12.8 32-6.4 38.4 0 6.4 0 12.8 6.4 12.8 12.8 6.4 6.4 0 19.2 0 19.2-6.4-12.8-6.4-12.8-12.8-19.2zM595.2 825.6c-6.4 0-12.8 0-19.2 0-19.2 0-32-6.4-44.8-12.8 6.4 0 6.4 0 12.8 0 32 0 57.6 0 57.6-12.8 6.4-6.4-12.8-19.2-32-25.6 12.8-6.4 19.2-6.4 32-6.4 32 0 57.6 12.8 51.2 25.6 0 19.2-25.6 32-57.6 32zM512 972.8c-275.2 0-505.6-249.6-505.6-556.8 0-64 12.8-128 32-179.2h32c32 0 64 6.4 83.2 19.2 6.4 6.4 12.8 6.4 19.2 6.4 19.2 0 32-6.4 38.4-19.2 12.8-12.8 19.2-19.2 25.6-25.6 6.4-12.8 19.2-12.8 25.6-12.8s19.2 0 19.2 6.4c0 6.4 0 12.8-12.8 19.2s-12.8 12.8-19.2 32c-6.4 12.8-25.6 19.2-25.6 51.2 0 25.6 19.2 64 57.6 51.2 25.6-6.4 44.8-44.8 51.2-57.6 6.4-6.4 12.8-12.8 25.6-6.4 6.4 12.8 19.2 12.8 25.6 0 0-12.8 44.8-83.2 76.8-96 51.2 0 83.2 12.8 102.4 12.8 12.8-6.4 25.6-12.8 32-12.8 19.2 0 25.6 12.8 44.8 12.8 12.8-6.4 32-12.8 44.8-12.8s44.8 19.2 44.8 12.8c0-19.2-12.8-44.8-12.8-57.6-6.4-6.4 0-25.6-6.4-44.8 0-12.8-12.8-32-19.2-44.8-12.8-19.2-19.2-25.6-32-51.2-6.4-25.6-25.6-51.2-32-57.6-6.4-12.8 38.4 0 51.2 12.8s38.4 57.6 70.4 64c19.2 19.2 19.2 32 19.2 38.4s0 6.4 0 6.4l6.4 6.4c25.6 12.8 57.6 19.2 96 19.2 25.6 0 44.8 0 64-6.4 51.2 89.6 83.2 198.4 83.2 307.2 0 313.6-230.4 563.2-505.6 563.2zM473.6 294.4c-204.8 70.4-377.6 204.8-358.4 281.6 12.8 44.8 76.8 70.4 160 51.2-12.8-25.6-12.8-57.6 44.8-102.4 70.4-44.8 192-83.2 224-76.8 12.8 0 25.6 6.4 12.8 12.8s-19.2 25.6-25.6 51.2c0 19.2-6.4 44.8-83.2 57.6-166.4 32-160 83.2-153.6 115.2 0 0 12.8 70.4 19.2 96 6.4 19.2 25.6 76.8 128 57.6 64-12.8 96 0 115.2 6.4 44.8 12.8 96 0 121.6-25.6 32-38.4 70.4-134.4 89.6-211.2 0-38.4 0-57.6 0-70.4 0-6.4-6.4-12.8-19.2-32 0-6.4 0-6.4 6.4-6.4 32 19.2 38.4 44.8 44.8 64 89.6-19.2 140.8-70.4 134.4-140.8-32-147.2-249.6-198.4-460.8-128z" />
<glyph unicode="&#xe932;" glyph-name="os-ubuntu" d="M1004.8 416h-32c-38.4 0-83.2 0-121.6 0-6.4 0-6.4 0-6.4-6.4-25.6-121.6-128-211.2-249.6-211.2-32 0-57.6 6.4-83.2 12.8 0 0-6.4 0-6.4 0s0 0-6.4-6.4c-12.8-25.6-32-57.6-44.8-83.2l-25.6-44.8c0 0-6.4-6.4-6.4-6.4s6.4 0 6.4-6.4c44.8-19.2 96-32 147.2-32 32 0 64 0 96 6.4 6.4 0 6.4 0 6.4 6.4 6.4 76.8 70.4 134.4 153.6 134.4 19.2 0 38.4-6.4 57.6-12.8 0 0 6.4 0 6.4 0s0 0 6.4 6.4c38.4 44.8 64 96 83.2 147.2 6.4 12.8 6.4 32 12.8 44.8 0 6.4 6.4 19.2 6.4 25.6v25.6zM492.8 710.4c6.4-6.4 6.4-6.4 0 0 6.4-6.4 12.8-6.4 12.8-6.4 25.6 12.8 51.2 12.8 83.2 12.8 12.8 0 19.2 0 32 0 115.2-12.8 198.4-89.6 224-204.8 0-6.4 6.4-6.4 12.8-6.4v0c19.2 0 44.8 0 64 0h83.2v19.2c0 0 0 6.4 0 6.4-12.8 76.8-44.8 147.2-96 204.8-12.8 6.4-12.8 6.4-25.6 0-19.2-6.4-38.4-12.8-51.2-12.8-76.8 0-140.8 57.6-147.2 134.4 0 6.4 0 6.4-6.4 6.4-19.2 0-32 6.4-51.2 6.4-70.4 12.8-140.8 0-204.8-25.6 0 0-6.4 0-6.4 0s0 0 0-6.4c32-51.2 57.6-89.6 76.8-128zM832 787.2c12.8 0 25.6 0 38.4 6.4 25.6 12.8 38.4 32 51.2 51.2 6.4 25.6 6.4 51.2-6.4 70.4-12.8 25.6-32 38.4-57.6 51.2h-44.8c-6.4 0-6.4 0-12.8-6.4-25.6-6.4-44.8-25.6-51.2-51.2-12.8-25.6-12.8-51.2 0-70.4 12.8-32 44.8-51.2 83.2-51.2zM185.6 512c-19.2 25.6-44.8 44.8-83.2 44.8-12.8 0-25.6 0-38.4-6.4-25.6-12.8-44.8-32-51.2-64v-44.8c6.4-19.2 12.8-38.4 25.6-44.8 19.2-19.2 38.4-25.6 64-25.6 19.2 0 38.4 6.4 57.6 19.2 38.4 25.6 51.2 76.8 25.6 121.6zM857.6 128c-38.4 12.8-76.8 0-102.4-32s-25.6-76.8 0-108.8c12.8-19.2 32-32 57.6-38.4h38.4c0 0 6.4 0 6.4 6.4 38.4 12.8 64 44.8 64 89.6 0 38.4-25.6 70.4-64 83.2zM422.4 268.8c-76.8 64-102.4 140.8-89.6 236.8 12.8 57.6 38.4 108.8 83.2 153.6 0 0 0 0 6.4 6.4 0 0 0 0 0 0-19.2 25.6-32 57.6-51.2 83.2l-25.6 44.8c0 0 0 0 0 0s0 0 0 0c-25.6-12.8-44.8-32-64-51.2-38.4-44.8-64-89.6-89.6-153.6 0 0 0 0 6.4-6.4s12.8-12.8 19.2-19.2c32-32 44.8-70.4 38.4-115.2 0-44.8-25.6-83.2-57.6-108.8-6.4 0-6.4-6.4 0-12.8 25.6-83.2 76.8-147.2 147.2-204.8 0 0 0 0 6.4 0 0 0 0 0 0 0 25.6 44.8 51.2 89.6 76.8 128-6.4 12.8-6.4 12.8-6.4 19.2z" />
<glyph unicode="&#xe933;" glyph-name="os-windows" d="M908.8 416h-32c-38.4 0-83.2 0-121.6 0h-140.8c-32 0-70.4 0-102.4 0 0 0 0 0 0 0s0 0 0 0c0-96 0-192 0-288 0 0 0 0 0 0s0 0 0 0c108.8-12.8 217.6-32 326.4-44.8l76.8-12.8c0 0 0 0 6.4 0 0 96 0 185.6 0 281.6v64zM838.4 505.6h64v64c0 96 0 192 0 281.6-44.8-6.4-83.2-12.8-121.6-19.2-19.2 0-44.8-6.4-64-6.4-70.4-12.8-140.8-25.6-211.2-32 0 0 0 0 0 0s0 0 0 0c0-96 0-192 0-288 108.8 0 224 0 332.8 0zM499.2 480v25.6zM121.6 416v-236.8c0 0 6.4 0 6.4 0 96-12.8 192-25.6 288-38.4 0 96 0 185.6 0 275.2-83.2 0-160 0-243.2 0h-51.2zM428.8 108.8v32zM256 761.6c-44.8-6.4-89.6-12.8-134.4-19.2v-236.8h51.2c83.2 0 160 0 243.2 0 0 89.6 0 185.6 0 275.2-19.2 0-38.4-6.4-57.6-6.4-38.4-6.4-70.4-12.8-102.4-12.8zM422.4 480v25.6z" />
<glyph unicode="&#xe934;" glyph-name="pdetails" d="M545.28 720.64h336c19.44 0 35.2 15.76 35.2 35.2s-15.76 35.2-35.2 35.2v0h-336c-19.44 0-35.2-15.76-35.2-35.2s15.76-35.2 35.2-35.2v0zM881.28 614.4h-336c-19.44 0-35.2-15.76-35.2-35.2s15.76-35.2 35.2-35.2h336c19.44 0 35.2 15.76 35.2 35.2s-15.76 35.2-35.2 35.2v0zM415.36 839.040h-272.64c-19.44 0-35.2-15.76-35.2-35.2v0-272.64c0-19.44 15.76-35.2 35.2-35.2v0h272.64c18.307 1.375 32.64 16.567 32.64 35.107 0 0.033 0 0.066 0 0.098v-0.005 272.64c0 0.028 0 0.060 0 0.093 0 18.54-14.333 33.732-32.522 35.1l-0.118 0.007zM380.16 566.4h-202.24v202.24h202.24zM881.28 359.68h-336c-19.44 0-35.2-15.76-35.2-35.2s15.76-35.2 35.2-35.2h336c19.44 0 35.2 15.76 35.2 35.2s-15.76 35.2-35.2 35.2v0zM881.28 182.4h-336c-19.44 0-35.2-15.76-35.2-35.2s15.76-35.2 35.2-35.2h336c19.44 0 35.2 15.76 35.2 35.2s-15.76 35.2-35.2 35.2v0zM415.36 407.68h-272.64c-19.44 0-35.2-15.76-35.2-35.2v0-272.64c0-19.44 15.76-35.2 35.2-35.2v0h272.64c18.307 1.375 32.64 16.567 32.64 35.107 0 0.033 0 0.066 0 0.098v-0.005 272.64c0 0.028 0 0.060 0 0.093 0 18.54-14.333 33.732-32.522 35.1l-0.118 0.007zM380.16 135.040h-202.24v202.24h202.24z" />
<glyph unicode="&#xe935;" glyph-name="pmem" d="M808.96 481.92c47.715 38.438 77.987 96.864 77.987 162.359 0 114.875-93.125 208-208 208-41.812 0-80.742-12.337-113.35-33.57l0.803 0.49c-43.161 40.575-101.439 65.505-165.539 65.505-133.609 0-241.92-108.311-241.92-241.92 0-82.325 41.122-155.046 103.945-198.743l0.793-0.522c-169.6-68.48-218.88-259.2-218.88-369.92 0-19.44 15.76-35.2 35.2-35.2v0h647.040c19.44 0 35.2 15.76 35.2 35.2v0c-0.074 20.155-1.467 39.913-4.098 59.277l0.258-2.317h185.6c19.44 0 35.2 15.76 35.2 35.2v0c0 88.96-37.76 250.24-170.24 316.16zM232.96 640.64c-0.001 0.187-0.001 0.408-0.001 0.629 0 95.081 77.079 172.16 172.16 172.16s172.16-77.079 172.16-172.16c0-95.081-77.079-172.16-172.16-172.16-0.675 0-1.349 0.004-2.022 0.012l0.103-0.001c-94.806 0.364-171.52 77.302-171.52 172.159 0 0 0 0.001 0 0.001v0zM117.12 108.8c10.88 84.48 55.040 288 286.72 288s276.48-205.44 286.080-290.56zM743.68 200.96c-25.778 109.504-99.924 197.743-198.106 242.301l-2.214 0.899c62.564 43.658 102.984 115.296 102.984 196.375 0 45.689-12.836 88.381-35.098 124.665l0.593-1.040c17.413 8.554 37.9 13.556 59.556 13.556 75.994 0 137.6-61.606 137.6-137.6 0-62.090-41.125-114.575-97.621-131.702l-0.975-0.254c-14.771-4.403-25.357-17.863-25.357-33.796 0-17.319 12.508-31.717 28.984-34.653l0.213-0.031c149.12-21.76 184.32-168.96 192-238.080z" />
<glyph unicode="&#xe936;" glyph-name="portfwd" d="M327.68 503.68h7.68c0.040 0 0.088 0 0.136 0 18.489 0 33.926 13.067 37.58 30.47l0.044 0.25c20.569 89.334 99.414 154.939 193.581 154.939 1.694 0 3.384-0.021 5.068-0.063l-0.249 0.005h21.76v-100.48c0-14.72 25.6-21.76 40.32-11.52l198.4 135.68c4.308 2.121 7.221 6.481 7.221 11.52s-2.912 9.399-7.146 11.487l-0.075 0.033-198.4 136.96c-14.72 10.24-40.32 0-40.32-11.52v-96.64h-21.76c-1.322 0.023-2.882 0.036-4.445 0.036-131.138 0-240.853-91.725-268.488-214.518l-0.348-1.838c-0.445-2.194-0.7-4.717-0.7-7.299 0-18.281 12.774-33.578 29.883-37.452l0.257-0.049zM941.44 92.16h-858.88c-19.44 0-35.2-15.76-35.2-35.2s15.76-35.2 35.2-35.2h858.88c19.44 0 35.2 15.76 35.2 35.2s-15.76 35.2-35.2 35.2v0zM146.56 181.76h173.44c19.44 0 35.2 15.76 35.2 35.2v0 174.080c0 19.44-15.76 35.2-35.2 35.2v0h-173.44c-19.44 0-35.2-15.76-35.2-35.2v0-174.080c0-19.44 15.76-35.2 35.2-35.2v0zM181.76 355.84h103.68v-103.68h-103.68zM599.040 426.24h-174.080c-19.44 0-35.2-15.76-35.2-35.2v0-174.080c0-19.44 15.76-35.2 35.2-35.2h174.080c19.44 0 35.2 15.76 35.2 35.2v0 174.080c0 19.44-15.76 35.2-35.2 35.2v0zM563.84 252.16h-103.68v103.68h103.68zM668.16 391.040v-174.080c0-19.44 15.76-35.2 35.2-35.2v0h174.080c19.44 0 35.2 15.76 35.2 35.2v0 174.080c0 19.44-15.76 35.2-35.2 35.2v0h-173.44c-0.19 0.004-0.415 0.006-0.64 0.006-19.44 0-35.2-15.76-35.2-35.2 0-0.002 0-0.004 0-0.006v0zM738.56 355.84h103.68v-103.68h-103.68z" />
<glyph unicode="&#xe937;" glyph-name="psw" d="M45.44 497.28c6.908-11.613 19.392-19.273 33.666-19.273 7.16 0 13.871 1.928 19.64 5.293l-0.186-0.1 109.44 64v-128c2.559-19.308 18.917-34.052 38.72-34.052s36.161 14.744 38.698 33.853l0.022 0.199v128l109.44-64c3.060-0.862 6.574-1.357 10.204-1.357 21.561 0 39.040 17.479 39.040 39.040 0 10.154-3.877 19.403-10.23 26.347l0.027-0.030-109.44 64 109.44 64c6.327 6.914 10.204 16.163 10.204 26.317 0 21.561-17.479 39.040-39.040 39.040-3.63 0-7.144-0.495-10.478-1.422l0.275 0.065-109.44-64v128c-2.559 19.308-18.917 34.052-38.72 34.052s-36.161-14.744-38.698-33.853l-0.022-0.199v-128l-109.44 64c-3.060 0.862-6.574 1.357-10.204 1.357-21.561 0-39.040-17.479-39.040-39.040 0-10.154 3.877-19.403 10.23-26.347l-0.027 0.030 109.44-64-109.44-60.8c-11.733-6.721-19.511-19.169-19.511-33.433 0-7.268 2.019-14.064 5.527-19.859l-0.096 0.171zM576 497.28c6.908-11.613 19.392-19.273 33.666-19.273 7.16 0 13.871 1.928 19.64 5.293l-0.186-0.1 109.44 64v-128c2.559-19.308 18.917-34.052 38.72-34.052s36.161 14.744 38.698 33.853l0.022 0.199v128l109.44-64c3.060-0.862 6.574-1.357 10.204-1.357 21.561 0 39.040 17.479 39.040 39.040 0 10.154-3.877 19.403-10.23 26.347l0.027-0.030-109.44 64 109.44 64c6.327 6.914 10.204 16.163 10.204 26.317 0 21.561-17.479 39.040-39.040 39.040-3.63 0-7.144-0.495-10.478-1.422l0.275 0.065-109.44-64v128c-2.559 19.308-18.917 34.052-38.72 34.052s-36.161-14.744-38.698-33.853l-0.022-0.199v-128l-109.44 64c-3.060 0.862-6.574 1.357-10.204 1.357-21.561 0-39.040-17.479-39.040-39.040 0-10.154 3.877-19.403 10.23-26.347l-0.027 0.030 109.44-64-109.44-64c-10.986-6.884-18.184-18.925-18.184-32.648 0-6.299 1.517-12.244 4.205-17.489l-0.101 0.216zM966.4 180.48h-908.8c-20.988-2.673-37.050-20.421-37.050-41.92s16.062-39.247 36.841-41.898l0.21-0.022h908.8c20.988 2.673 37.050 20.421 37.050 41.92s-16.062 39.247-36.841 41.898l-0.21 0.022z" />
<glyph unicode="&#xe938;" glyph-name="quota" d="M529.28 901.12c-247.424 0-448-200.576-448-448s200.576-448 448-448c247.424 0 448 200.576 448 448v0c-2.153 246.553-201.447 445.847-447.794 447.999l-0.206 0.001zM908.8 484.48h-396.8l-141.44 311.040c46.946 22.38 102.027 35.45 160.16 35.45 197.975 0 360.545-151.587 377.973-345.024l0.107-1.466zM529.28 69.12c-0.472-0.002-1.030-0.003-1.588-0.003-209.957 0-380.16 170.203-380.16 380.16 0 128.083 63.342 241.372 160.41 310.25l1.178 0.794 147.84-325.76c5.709-12.189 17.874-20.48 31.974-20.48 0.009 0 0.018 0 0.027 0h419.839c-20.379-193.759-182.242-343.639-379.386-344.959l-0.134-0.001z" />
<glyph unicode="&#xe939;" glyph-name="realtime" d="M512 901.12c-246.044-1.814-444.8-201.69-444.8-447.989 0-247.424 200.576-448 448-448 247.42 0 447.994 200.57 448 447.988v0c-2.172 247.669-203.273 447.647-451.166 448h-0.034zM512 69.12c-212.077 0-384 171.923-384 384s171.923 384 384 384c212.077 0 384-171.923 384-384v0c0-212.077-171.923-384-384-384v0zM746.24 423.68h-234.24v264.96c0 19.44-15.76 35.2-35.2 35.2s-35.2-15.76-35.2-35.2v0-300.8c0-19.44 15.76-35.2 35.2-35.2h267.52c19.44 0 35.2 15.76 35.2 35.2s-15.76 35.2-35.2 35.2v0z" />
<glyph unicode="&#xe93a;" glyph-name="reset" d="M421.12 867.84c-191.547-47.558-331.274-218.012-331.274-421.101 0-138.093 64.602-261.097 165.234-340.439l0.921-0.7-49.28-64c-1.8-2.266-2.888-5.168-2.888-8.324 0-7.313 5.841-13.262 13.112-13.436h192.016c0.116-0.004 0.251-0.006 0.388-0.006 7.423 0 13.44 6.017 13.44 13.44 0 1.138-0.141 2.243-0.408 3.298l0.020-0.093-40.96 185.6c-1.271 6.207-6.688 10.81-13.18 10.81-4.237 0-8.016-1.961-10.48-5.024l-0.020-0.026-54.4-68.48c-85.718 67.020-140.303 170.437-140.303 286.603 0 171.18 118.528 314.677 277.99 352.897l2.473 0.5c14.901 4.318 25.611 17.843 25.611 33.869 0 19.44-15.76 35.2-35.2 35.2-2.267 0-4.483-0.214-6.631-0.624l0.22 0.035zM904.32 615.040c-26.817 63.706-66.172 117.432-115.318 160.196l-0.522 0.444 37.12 46.080c2.547 2.449 4.129 5.886 4.129 9.692 0 7.423-6.017 13.44-13.44 13.44-0.553 0-1.098-0.033-1.633-0.098l0.064 0.006h-192c-0.116 0.004-0.251 0.006-0.388 0.006-7.423 0-13.44-6.017-13.44-13.44 0-1.138 0.141-2.243 0.408-3.298l-0.020 0.093 40.96-185.6c1.271-6.207 6.688-10.81 13.18-10.81 4.237 0 8.016 1.961 10.48 5.024l0.020 0.026 64 83.84c75.827-66.73 123.421-163.99 123.421-272.366 0-149.177-90.175-277.293-218.989-332.812l-2.352-0.902c-15.314-6.66-33.669-12.806-52.623-17.422l-2.417-0.498c-16.492-3.135-28.793-17.437-28.793-34.612 0-19.44 15.76-35.2 35.2-35.2 0.673 0 1.342 0.019 2.005 0.056l-0.092-0.004h8.32c192.685 46.724 333.544 217.735 333.544 421.645 0 59.605-12.036 116.399-33.81 168.084l1.065-2.849z" />
<glyph unicode="&#xe93b;" glyph-name="restart" d="M522.88 891.52c-21.208 0-38.4-17.192-38.4-38.4v0-228.48c0-21.208 17.192-38.4 38.4-38.4s38.4 17.192 38.4 38.4v0 228.48c0 21.208-17.192 38.4-38.4 38.4v0zM522.88 288c-21.208 0-38.4-17.192-38.4-38.4v0-228.48c0-21.208 17.192-38.4 38.4-38.4s38.4 17.192 38.4 38.4v228.48c0 21.208-17.192 38.4-38.4 38.4v0zM373.76 437.12c0 21.208-17.192 38.4-38.4 38.4v0h-228.48c-21.208 0-38.4-17.192-38.4-38.4s17.192-38.4 38.4-38.4h228.48c21.208 0 38.4 17.192 38.4 38.4v0zM938.88 475.52h-227.84c-21.208 0-38.4-17.192-38.4-38.4s17.192-38.4 38.4-38.4h228.48c21.208 0 38.4 17.192 38.4 38.4s-17.192 38.4-38.4 38.4v0zM362.88 332.8l-161.28-162.56c-6.961-6.961-11.267-16.578-11.267-27.2 0-21.245 17.222-38.467 38.467-38.467 10.622 0 20.239 4.306 27.2 11.267l161.28 161.28c7.235 7.074 11.722 16.933 11.722 27.84 0 21.496-17.426 38.922-38.922 38.922-10.589 0-20.19-4.228-27.207-11.089l0.007 0.007zM656 531.84c0.029 0 0.064 0 0.099 0 10.42 0 19.871 4.15 26.789 10.888l161.272 161.272c6.961 6.961 11.267 16.578 11.267 27.2 0 21.245-17.222 38.467-38.467 38.467-10.622 0-20.239-4.306-27.2-11.267l-161.28-161.28c-6.088-6.767-9.812-15.768-9.812-25.638 0-20.607 16.232-37.423 36.608-38.359l0.084-0.003zM682.88 332.8c-6.961 6.961-16.578 11.267-27.2 11.267-21.245 0-38.467-17.222-38.467-38.467 0-10.622 4.306-20.239 11.267-27.2l161.28-161.28c6.961-6.961 16.578-11.267 27.2-11.267 21.245 0 38.467 17.222 38.467 38.467 0 10.622-4.306 20.239-11.267 27.2v0zM256 758.4c-6.961 6.961-16.578 11.267-27.2 11.267-21.245 0-38.467-17.222-38.467-38.467 0-10.622 4.306-20.239 11.267-27.2v0l161.92-161.28c6.961-6.961 16.578-11.267 27.2-11.267 21.245 0 38.467 17.222 38.467 38.467 0 10.622-4.306 20.239-11.267 27.2v0z" />
<glyph unicode="&#xe93c;" glyph-name="rollback" d="M512 908.8c-0.431 0.001-0.94 0.002-1.45 0.002-247.424 0-448-200.576-448-448 0-102.208 34.227-196.421 91.844-271.804l-0.794 1.082-56.32-56.32c-2.307-2.315-3.733-5.508-3.733-9.035 0-6.581 4.966-12.002 11.355-12.719l0.058-0.005 179.84-20.48c0.405-0.046 0.875-0.072 1.352-0.072 7.069 0 12.8 5.731 12.8 12.8 0 0.476-0.026 0.946-0.077 1.409l0.005-0.057-19.2 181.76c-0.187 6.923-5.844 12.464-12.796 12.464-4.575 0-8.59-2.401-10.853-6.011l-0.031-0.054-53.76-53.76c-43.27 60.75-69.179 136.477-69.179 218.255 0 209.25 169.63 378.88 378.88 378.88s378.88-169.63 378.88-378.88c0-209.25-169.63-378.88-378.88-378.88-18.945 0-37.565 1.39-55.764 4.075l2.063-0.25c-0.959 0.092-2.073 0.145-3.2 0.145-19.521 0-35.345-15.825-35.345-35.345 0-18.394 14.051-33.506 32.004-35.189l0.141-0.011c8.997-0.63 19.496-0.99 30.080-0.99s21.083 0.359 31.487 1.066l-1.407-0.077c247.424 0 448 200.576 448 448s-200.576 448-448 448v0zM505.6 756.48c-19.44 0-35.2-15.76-35.2-35.2v0-280.96c-0.001-0.109-0.002-0.237-0.002-0.366 0-10.905 4.958-20.651 12.744-27.108l0.058-0.047 192-156.16c6.039-5.002 13.865-8.036 22.4-8.036 19.46 0 35.236 15.776 35.236 35.236 0 10.925-4.972 20.69-12.778 27.153l-0.059 0.047-179.2 146.56v263.68c0 19.44-15.76 35.2-35.2 35.2v0z" />
<glyph unicode="&#xe93d;" glyph-name="rt" d="M524.16 908.8c-247.424 0-448-200.576-448-448s200.576-448 448-448c247.424 0 448 200.576 448 448v0c-2.153 246.553-201.447 445.847-447.794 447.999l-0.206 0.001zM524.16 76.8c-212.077 0-384 171.923-384 384s171.923 384 384 384c212.077 0 384-171.923 384-384v0c0-212.077-171.923-384-384-384v0zM485.76 661.76l-188.8 32.64 32.64-188.16 50.56 50.56 79.36-79.36 54.4 54.4-79.36 79.36 51.2 50.56zM679.040 355.84l-79.36 79.36-54.4-55.040 79.36-79.36-50.56-50.56 188.16-32.64-32.64 188.8-50.56-50.56zM360.32 349.44l-79.36-79.36 55.040-55.040 79.36 79.36 50.56-50.56 32.64 188.8-188.8-32.64 50.56-50.56zM639.36 620.8l-50.56 50.56-32.64-188.8 188.16 32.64-50.56 50.56 79.36 79.36-55.040 55.040-78.72-79.36z" />
<glyph unicode="&#xe93e;" glyph-name="setting" d="M659.2-12.8c-6.4 0-6.4 0-12.8 0-19.2 6.4-32 19.2-44.8 32-19.2 19.2-44.8 44.8-83.2 44.8s-64-25.6-89.6-44.8c-19.2-19.2-38.4-38.4-64-32-64 12.8-121.6 44.8-166.4 89.6-6.4 6.4-6.4 6.4-6.4 12.8-6.4 19.2 0 38.4 6.4 57.6 12.8 32 19.2 57.6-6.4 102.4-32 44.8-64 51.2-96 57.6-19.2 0-38.4 6.4-51.2 19.2-6.4 0-6.4 6.4-6.4 12.8-32 76.8-32 160-6.4 236.8 0 6.4 6.4 12.8 12.8 12.8 19.2 12.8 32 12.8 44.8 12.8 19.2 0 44.8 6.4 89.6 44.8 44.8 44.8 32 83.2 19.2 115.2-6.4 25.6-12.8 38.4-6.4 51.2 6.4 57.6 140.8 121.6 179.2 121.6 25.6 0 44.8-19.2 64-38.4 25.6-19.2 51.2-44.8 83.2-44.8s51.2 19.2 70.4 38.4c19.2 19.2 38.4 32 64 38.4 51.2 6.4 121.6-38.4 147.2-57.6s38.4-38.4 44.8-64c0-6.4 0-19.2 0-32-6.4-32-6.4-83.2 19.2-121.6 19.2-25.6 51.2-38.4 83.2-44.8 12.8 0 32-6.4 51.2-19.2 6.4-6.4 6.4-12.8 6.4-12.8 19.2-83.2 19.2-166.4-12.8-243.2 0-6.4-6.4-12.8-12.8-19.2-12.8-6.4-25.6-12.8-38.4-19.2-32-12.8-70.4-19.2-89.6-57.6-12.8-32-6.4-70.4 0-102.4 6.4-19.2 6.4-38.4 0-51.2 0-6.4-6.4-12.8-6.4-12.8-51.2-51.2-108.8-83.2-172.8-96-6.4 12.8-6.4 12.8-12.8 12.8zM262.4 115.2c32-25.6 70.4-51.2 108.8-57.6 6.4 6.4 12.8 6.4 12.8 12.8 25.6 25.6 70.4 64 134.4 64 70.4 0 108.8-44.8 134.4-64 6.4-6.4 6.4-6.4 12.8-12.8 44.8 12.8 83.2 32 115.2 64 0 0 0 6.4 0 12.8-6.4 32-19.2 89.6 6.4 147.2 25.6 64 96 83.2 134.4 89.6 6.4 0 12.8 0 12.8 6.4 19.2 51.2 19.2 108.8 6.4 166.4-6.4 0-12.8 6.4-19.2 6.4-32 6.4-83.2 25.6-121.6 70.4-38.4 57.6-32 128-32 166.4 0 6.4 0 12.8 0 19.2-12.8 19.2-83.2 57.6-102.4 57.6-6.4 0-19.2-12.8-32-19.2-25.6-32-64-64-115.2-64s-96 38.4-128 64c-6.4 6.4-19.2 19.2-25.6 19.2-12.8 0-89.6-44.8-102.4-64 0-6.4 0-6.4 6.4-12.8 12.8-38.4 32-115.2-38.4-185.6-64-64-102.4-64-134.4-64 0 0 0 0 0 0-19.2-51.2-12.8-108.8 0-160 0 0 6.4 0 12.8 0 38.4-6.4 96-19.2 140.8-89.6s25.6-128 12.8-160c0-6.4 0-6.4 0-12.8zM768 806.4v0 0zM512 281.6c-96 0-179.2 76.8-179.2 172.8s83.2 179.2 179.2 179.2 179.2-76.8 179.2-172.8-76.8-179.2-179.2-179.2zM512 563.2c-57.6 0-108.8-44.8-108.8-102.4s51.2-108.8 108.8-108.8 108.8 44.8 108.8 102.4-44.8 108.8-108.8 108.8z" />
<glyph unicode="&#xe93f;" glyph-name="ssh" d="M955.52 152.96l-240.64 298.24-4.48 5.12-6.4 4.48c12.161 32.954 19.197 71.015 19.2 110.719v0.001c0 0.112 0 0.243 0 0.375 0 183.8-149 332.8-332.8 332.8s-332.8-149-332.8-332.8c0-183.8 149-332.8 332.8-332.8 40.88 0 80.039 7.371 116.22 20.856l-2.3-0.751 7.68-83.2c1.077-16.719 13.676-30.195 29.887-32.616l0.193-0.024 142.080-19.84 19.84-94.72c3.39-16.182 17.54-28.16 34.489-28.16 0.025 0 0.050 0 0.075 0h191.996c19.44 0 35.2 15.76 35.2 35.2v0 94.72c-0.647 8.799-4.438 16.606-10.24 22.4v0zM891.52 71.040h-123.52l-17.92 90.88c-2.901 14.658-14.59 25.915-29.245 28.136l-0.195 0.024-138.24 19.2-6.4 104.96c-1.324 18.354-16.539 32.742-35.114 32.742-6.385 0-12.374-1.7-17.537-4.673l0.171 0.091c-37.575-21.928-82.717-34.874-130.883-34.874-145.273 0-263.040 117.767-263.040 263.040s117.767 263.040 263.040 263.040c145.273 0 263.040-117.767 263.040-263.040 0-39.811-8.844-77.557-24.676-111.379l0.678 1.613c-1.578-3.854-2.495-8.328-2.495-13.015 0-9.969 4.144-18.97 10.803-25.374l0.011-0.011 21.12-17.92 234.88-286.080zM384 736.64c-70.692 0-128-57.308-128-128s57.308-128 128-128c70.692 0 128 57.308 128 128v0c0 70.692-57.308 128-128 128v0zM384 544.64c-33.225 0-60.16 26.935-60.16 60.16s26.935 60.16 60.16 60.16c33.225 0 60.16-26.935 60.16-60.16v0c-1.067-32.389-27.579-58.24-60.129-58.24-0.011 0-0.022 0-0.032 0h0.002z" />
<glyph unicode="&#xe940;" glyph-name="start" d="M896 496l-640 391.68c-5.273 3.321-11.687 5.291-18.56 5.291-19.44 0-35.2-15.76-35.2-35.2 0-0.060 0-0.12 0-0.18v0.009-793.6c0-0.016 0-0.035 0-0.053 0-13.090 7.145-24.511 17.748-30.576l0.172-0.091c4.894-2.818 10.762-4.481 17.019-4.481 0.092 0 0.183 0 0.275 0.001h-0.014c0.082-0.001 0.179-0.001 0.276-0.001 6.76 0 13.074 1.905 18.436 5.208l-0.152-0.087 640 401.92c9.919 6.338 16.402 17.292 16.402 29.76s-6.482 23.422-16.26 29.675l-0.141 0.085zM273.28 127.36v667.52l538.24-329.6z" />
<glyph unicode="&#xe941;" glyph-name="tag" d="M661.12 466.56c77.054 0.001 139.519 62.466 139.519 139.52s-62.465 139.52-139.52 139.52c-76.83 0-139.155-62.101-139.518-138.845v-0.035c-0.001-0.19-0.001-0.415-0.001-0.64 0-77.055 62.465-139.52 139.52-139.52 0.001 0 0.001 0 0.002 0v0zM661.12 675.2c38.173-0.002 69.117-30.947 69.117-69.12s-30.946-69.12-69.12-69.12-69.12 30.946-69.12 69.12c0 0.225 0.001 0.45 0.003 0.674v-0.034c0 38.174 30.946 69.12 69.12 69.12v0zM933.12 902.4h-408.96c-9.504-0.14-18.073-4.025-24.321-10.241l0.001 0.001-413.44-403.2c-12.457-15.109-20.012-34.665-20.012-55.985 0-27.383 12.462-51.856 32.024-68.056l0.147-0.119 320-330.24c18.747-20.387 45.187-33.448 74.685-34.554l0.195-0.006c0.434-0.010 0.944-0.015 1.456-0.015 18.57 0 35.429 7.323 47.848 19.238l-0.024-0.023 417.28 403.84c6.596 6.31 10.739 15.138 10.88 24.934v419.226c0 0.028 0 0.060 0 0.093 0 19.44-15.76 35.2-35.2 35.2-0.901 0-1.794-0.034-2.678-0.1l0.118 0.007zM896 460.8l-398.72-389.76c-10.324 0.479-19.425 5.335-25.553 12.741l-0.047 0.059-320 330.24c-6.651 6.38-11.411 14.683-13.386 24.015l-0.054 0.305 400 393.6h357.76z" />
<glyph unicode="&#xe942;" glyph-name="target" d="M960 496.64h-55.68c-18.202 191.23-169.090 342.118-358.713 360.196l-1.607 0.124v44.8c0 19.44-15.76 35.2-35.2 35.2s-35.2-15.76-35.2-35.2v-44.8c-192.707-17.106-345.083-169.042-362.763-360.028l-0.117-1.572h-46.72c-19.44 0-35.2-15.76-35.2-35.2s15.76-35.2 35.2-35.2h46.72c17.935-194.821 173.664-348.126 367.989-362.165l1.291-0.075v-42.88c0-19.44 15.76-35.2 35.2-35.2s35.2 15.76 35.2 35.2v0 44.16c189.106 21.277 337.108 172.133 353.811 360.721l0.109 1.519h55.68c19.44 0 35.2 15.76 35.2 35.2s-15.76 35.2-35.2 35.2v0zM550.4 136.32v202.24c0 19.44-15.76 35.2-35.2 35.2s-35.2-15.76-35.2-35.2v0-204.16c-156.054 13.634-279.887 135.271-296.829 289.096l-0.131 1.464h200.96c19.44 0 35.2 15.76 35.2 35.2s-15.76 35.2-35.2 35.2h-200.96c17.132 152.808 137.593 272.831 289.119 289.154l1.441 0.126v-201.6c0-19.44 15.76-35.2 35.2-35.2s35.2 15.76 35.2 35.2v201.6c151.506-17.478 270.522-136.494 287.858-286.485l0.142-1.515h-192c-19.44 0-35.2-15.76-35.2-35.2s15.76-35.2 35.2-35.2h192c-16.037-150.445-132.229-269.477-279.902-289.729l-1.698-0.191z" />
<glyph unicode="&#xe943;" glyph-name="task" d="M243.2 524.8c6.4-6.4 25.6-12.8 38.4-12.8s19.2 0 25.6 6.4c0 0 6.4 0 12.8 6.4l134.4 134.4c12.8 12.8 12.8 25.6 12.8 38.4s-6.4 19.2-19.2 32c-32 19.2-51.2 19.2-76.8 0l-96-102.4-44.8 44.8c-19.2 19.2-57.6 19.2-64 0-12.8-12.8-19.2-25.6-12.8-38.4 0-12.8 6.4-25.6 12.8-25.6l76.8-83.2zM294.4 454.4c-70.4 0-128-57.6-128-128s57.6-128 128-128 128 57.6 128 128c-6.4 83.2-70.4 128-128 128zM294.4 358.4c12.8 0 25.6-6.4 25.6-25.6s-12.8-25.6-25.6-25.6c-19.2 0-25.6 6.4-25.6 25.6s6.4 25.6 25.6 25.6zM448 627.2c0-32 19.2-44.8 44.8-44.8h339.2c25.6 0 44.8 19.2 44.8 44.8s-19.2 44.8-44.8 44.8h-339.2c-32 0-44.8-19.2-44.8-44.8zM832 377.6h-339.2c-32 0-44.8-12.8-44.8-44.8 0-25.6 19.2-44.8 44.8-44.8h339.2c25.6 0 44.8 19.2 44.8 44.8s-19.2 44.8-44.8 44.8zM857.6 972.8h-691.2c-89.6 0-166.4-76.8-166.4-166.4v-659.2c0-89.6 76.8-166.4 166.4-166.4h697.6c89.6 0 166.4 76.8 166.4 166.4v659.2c-6.4 96-76.8 166.4-172.8 166.4zM96 806.4c0 38.4 32 64 64 64h697.6c38.4 0 64-32 64-64v-665.6c0-38.4-32-64-64-64h-691.2c-38.4 0-64 32-64 64v665.6z" />
<glyph unicode="&#xe944;" glyph-name="tickets" d="M837.76 887.040h-611.84c-1.589 0.092-3.449 0.145-5.32 0.145-51.879 0-94.335-40.345-97.704-91.371l-0.016-0.294v-688c3.71-51.031 46.023-91.027 97.677-91.027 1.886 0 3.761 0.053 5.621 0.159l-0.258-0.012h611.84c1.59-0.093 3.449-0.146 5.321-0.146 51.526 0 93.695 40.059 97.063 90.732l0.016 0.294v688c-3.055 51.254-45.367 91.664-97.118 91.664-1.858 0-3.704-0.052-5.536-0.155l0.254 0.011zM700.16 816.64l-64-118.4h-208.64l-64 118.4zM869.76 107.52c0-9.6-13.44-20.48-32-20.48h-611.84c-18.56 0-32.64 10.88-32.64 20.48v688c0 10.24 14.080 21.12 32.64 21.12h56.96l92.8-170.24c5.895-11.117 17.395-18.56 30.633-18.56 0.030 0 0.061 0 0.091 0h250.235c0.026 0 0.056 0 0.087 0 13.238 0 24.738 7.443 30.543 18.373l0.091 0.187 92.8 170.24h57.6c18.56 0 32-10.88 32-21.12zM688.64 460.8h-314.24c-19.44 0-35.2-15.76-35.2-35.2v0c-0.004-0.192-0.006-0.419-0.006-0.646 0-19.087 15.473-34.56 34.56-34.56 0.227 0 0.454 0.002 0.68 0.007l-0.034-0.001h314.24c0.192-0.004 0.419-0.006 0.646-0.006 19.087 0 34.56 15.473 34.56 34.56 0 0.227-0.002 0.454-0.007 0.68l0.001-0.034c0 19.44-15.76 35.2-35.2 35.2v0zM688.64 315.52h-314.24c-19.44 0-35.2-15.76-35.2-35.2s15.76-35.2 35.2-35.2h314.24c19.44 0 35.2 15.76 35.2 35.2s-15.76 35.2-35.2 35.2v0z" />
<glyph unicode="&#xe945;" glyph-name="trash" d="M924.8 758.4h-213.76l-35.84 128c-3.871 15.552-17.714 26.894-34.206 26.894-0.35 0-0.698-0.005-1.045-0.015l0.051 0.001h-261.76c-16.206-0.057-29.827-11.057-33.863-25.994l-0.057-0.246-33.28-128h-211.84c-19.44 0-35.2-15.76-35.2-35.2s15.76-35.2 35.2-35.2h48l38.4-644.48c1.047-18.596 16.383-33.28 35.148-33.28 0.018 0 0.037 0 0.055 0h575.997c0.028 0 0.060 0 0.093 0 18.54 0 33.732 14.333 35.1 32.522l0.007 0.118 49.92 645.12h43.52c19.44 0 35.2 15.76 35.2 35.2s-15.76 35.2-35.2 35.2v0zM405.12 844.8h209.92l24.96-86.4h-256zM763.52 83.2h-507.52l-38.4 604.8h592.64zM405.12 195.2v0c18.621 1.018 33.335 16.366 33.335 35.151 0 0.693-0.020 1.381-0.059 2.064l0.004-0.094-16 378.88c-1.327 18.706-16.828 33.378-35.755 33.378-0.931 0-1.853-0.035-2.766-0.105l0.121 0.007c-18.621-1.018-33.335-16.366-33.335-35.151 0-0.693 0.020-1.381 0.059-2.064l-0.004 0.094 17.92-378.88c1.034-18.608 16.375-33.305 35.149-33.305 0.468 0 0.934 0.009 1.398 0.027l-0.067-0.002zM609.92 195.2v0c0.016 0 0.034 0 0.052 0 18.765 0 34.101 14.684 35.143 33.188l0.004 0.092 17.92 378.88c0.023 0.478 0.036 1.037 0.036 1.6 0 19.46-15.776 35.236-35.236 35.236-18.898 0-34.321-14.877-35.197-33.558l-0.003-0.079-16.64-378.24c-0.034-0.58-0.054-1.258-0.054-1.941 0-19.009 15.068-34.499 33.912-35.177l0.062-0.002z" />
<glyph unicode="&#xe946;" glyph-name="user" d="M627.84 427.52c82.944 43.487 138.56 128.985 138.56 227.473 0 141.385-114.615 256-256 256s-256-114.615-256-256c0-98.488 55.616-183.986 137.156-226.801l1.404-0.672c-256-71.68-259.84-372.48-259.84-376.32 0-19.44 15.76-35.2 35.2-35.2v0h684.16c19.44 0 35.2 15.76 35.2 35.2v0c0 3.2-3.2 304.64-259.84 376.32zM327.040 652.8c0.728 100.89 82.683 182.396 183.676 182.396 101.444 0 183.68-82.236 183.68-183.68 0-100.992-81.506-182.947-182.326-183.675h-0.069c-0.382-0.003-0.833-0.004-1.284-0.004-101.444 0-183.68 82.236-183.68 183.68 0 0.452 0.002 0.903 0.005 1.354v-0.069zM206.72 86.4c10.24 83.84 59.52 286.080 304 286.080s294.4-202.24 304-286.080z" />
<glyph unicode="&#xe947;" glyph-name="visit" d="M896 888.32h-729.6c-0.001 0-0.001 0-0.002 0-51.252 0-92.8-41.548-92.8-92.8 0-0.225 0.001-0.45 0.002-0.674v0.034-526.080c-0.022-0.763-0.035-1.66-0.035-2.56 0-51.252 41.548-92.8 92.8-92.8 0.012 0 0.025 0 0.037 0h250.878c19.44 0 35.2 15.76 35.2 35.2s-15.76 35.2-35.2 35.2h-250.88c-0.044 0-0.095 0-0.147 0-12.371 0-22.4 10.029-22.4 22.4 0 0.902 0.053 1.792 0.157 2.666l-0.010-0.106v526.080c-0.006 0.191-0.009 0.415-0.009 0.64 0 12.371 10.029 22.4 22.4 22.4 0.003 0 0.006 0 0.010 0h729.599c0.003 0 0.006 0 0.009 0 12.371 0 22.4-10.029 22.4-22.4 0-0.225-0.003-0.449-0.010-0.673l0.001 0.033v-128c0-19.44 15.76-35.2 35.2-35.2s35.2 15.76 35.2 35.2v0 128c0.001 0.19 0.002 0.415 0.002 0.64 0 51.252-41.548 92.8-92.8 92.8-0.001 0-0.002 0-0.002 0v0zM728.32 69.12h-438.4c-19.44 0-35.2-15.76-35.2-35.2s15.76-35.2 35.2-35.2h438.4c19.44 0 35.2 15.76 35.2 35.2s-15.76 35.2-35.2 35.2v0zM687.36 482.56h232.32c19.44 0 35.2 15.76 35.2 35.2s-15.76 35.2-35.2 35.2h-320c-0.057 0-0.125 0.001-0.192 0.001-8.63 0-16.462-3.416-22.217-8.97l0.010 0.009h-1.28c-5.943-6.197-9.602-14.624-9.602-23.906 0-0.145 0.001-0.291 0.003-0.436v0.022-320c0-19.44 15.76-35.2 35.2-35.2s35.2 15.76 35.2 35.2v232.96l264.32-264.32c6.388-6.388 15.213-10.339 24.96-10.339 19.495 0 35.299 15.804 35.299 35.299 0 9.747-3.951 18.572-10.339 24.96v0z" />
<glyph unicode="&#xe948;" glyph-name="vlan" d="M942.080 723.2l-401.92 232.32c-5.049 2.965-11.12 4.716-17.6 4.716s-12.551-1.751-17.766-4.806l0.166 0.090-401.92-232.32c-10.417-6.24-17.283-17.468-17.283-30.299 0-0.148 0.001-0.296 0.003-0.444v0.022-464c-0.002-0.125-0.003-0.273-0.003-0.421 0-12.831 6.865-24.059 17.123-30.21l0.16-0.089 401.92-232.32c5.049-2.965 11.12-4.716 17.6-4.716s12.551 1.751 17.766 4.806l-0.166-0.090 401.92 231.68c10.417 6.24 17.283 17.468 17.283 30.299 0 0.148-0.001 0.296-0.003 0.444v-0.022 464.64c0.002 0.125 0.003 0.273 0.003 0.421 0 12.831-6.865 24.059-17.123 30.21l-0.16 0.089zM889.6 248.96l-367.36-211.2-366.080 211.2v423.68l366.080 211.2 366.72-211.84zM418.56 652.8c-3.662 3.472-8.622 5.608-14.080 5.608s-10.418-2.135-14.089-5.616l0.009 0.009-91.52-88.32c-3.851-3.728-6.242-8.945-6.242-14.721 0-11.255 9.079-20.39 20.313-20.479h57.609s0 0 0 0v-228.48c0-19.44 15.76-35.2 35.2-35.2s35.2 15.76 35.2 35.2v0 224s0 0 0 0h57.6c2.004-0.702 4.315-1.107 6.72-1.107 11.569 0 20.947 9.378 20.947 20.947 0 9.164-5.884 16.953-14.080 19.796l-0.147 0.044zM630.4 268.8c3.728-3.851 8.945-6.241 14.72-6.241s10.992 2.39 14.715 6.235l0.005 0.006 86.4 87.68c3.473 3.662 5.608 8.622 5.608 14.081 0 11.257-9.083 20.393-20.32 20.479h-51.208v222.72c0 19.44-15.76 35.2-35.2 35.2s-35.2-15.76-35.2-35.2v0-222.72h-51.2c-11.245-0.086-20.328-9.222-20.328-20.479 0-5.459 2.136-10.419 5.617-14.090l-0.009 0.009z" />
<glyph unicode="&#xe949;" glyph-name="vsan" d="M263.68 490.24h583.68c46.932 2.723 83.96 41.447 83.96 88.819 0 1.625-0.044 3.24-0.13 4.844l0.010-0.224v202.24c0.076 1.38 0.12 2.995 0.12 4.621 0 47.372-37.028 86.096-83.72 88.808l-0.24 0.011h-583.68c-46.932-2.723-83.96-41.447-83.96-88.819 0-1.625 0.044-3.24 0.13-4.844l-0.010 0.224v-202.24c-0.076-1.38-0.12-2.995-0.12-4.621 0-47.372 37.028-86.096 83.72-88.808l0.24-0.011zM250.24 785.92c0 14.080 7.68 23.040 13.44 23.040h583.68c5.76 0 13.44-8.96 13.44-23.040v-202.24c0-14.080-7.68-23.040-13.44-23.040h-583.68c-5.76 0-13.44 8.96-13.44 23.040zM420.48 684.16c0-30.751-24.929-55.68-55.68-55.68s-55.68 24.929-55.68 55.68c0 30.751 24.929 55.68 55.68 55.68s55.68-24.929 55.68-55.68zM524.8 648.32h226.56c19.44 0 35.2 15.76 35.2 35.2s-15.76 35.2-35.2 35.2v0h-226.56c-19.44 0-35.2-15.76-35.2-35.2s15.76-35.2 35.2-35.2v0zM973.44 332.8c-19.396 24.179-48.939 39.527-82.067 39.527-22.188 0-42.768-6.885-59.72-18.634l0.348 0.228c-47.456-27.17-102.608-47.855-161.144-58.992l-3.336-0.528c-14.080 35.84-58.24 64-128 87.68-96.64 30.080-230.4 40.96-289.28 0-51.328-26.928-112.122-42.773-176.606-42.88h-0.034c-19.44 0-35.2-15.76-35.2-35.2s15.76-35.2 35.2-35.2v0c79.081 0.109 153.379 20.489 218.006 56.219l-2.326-1.179c30.627 9.146 65.819 14.409 102.24 14.409 43.147 0 84.569-7.387 123.069-20.965l-2.59 0.796c64-19.84 83.2-40.32 85.76-46.72 1.887-4.103 3.242-8.863 3.819-13.86l0.021-0.22c-21.004-4.911-45.121-7.727-69.896-7.727-39.22 0-76.793 7.056-111.517 19.967l2.213-0.721c-3.215 1.069-6.915 1.685-10.76 1.685-19.44 0-35.2-15.76-35.2-35.2 0-16.675 11.595-30.642 27.162-34.278l0.238-0.047c44.667-13.089 96.223-21.394 149.46-23.017l0.94-0.023c4.082-0.432 8.818-0.678 13.612-0.678 33.964 0 65.041 12.363 88.976 32.835l-0.188-0.157c3.026 3.564 5.783 7.546 8.13 11.785l0.19 0.375c75.626 12.451 143.427 37.066 204.595 71.974l-2.995-1.574c6.378 4.893 14.471 7.841 23.253 7.841 6.218 0 12.091-1.478 17.287-4.102l-0.22 0.101c6.707-3.926 11.852-9.898 14.641-17.049l0.079-0.231c-37.76-33.28-215.040-160.64-320-181.76-14.042-1.171-30.393-1.839-46.9-1.839-51.529 0-101.538 6.506-149.251 18.742l4.151-0.903c-50.296 13.966-108.052 21.993-167.682 21.993-48.057 0-94.896-5.213-139.983-15.105l4.305 0.792c-18.441-1.226-32.934-16.484-32.934-35.127 0-19.44 15.76-35.2 35.2-35.2 7.536 0 14.52 2.368 20.246 6.401l-0.112-0.074c33.75 6.771 72.549 10.646 112.253 10.646 55.692 0 109.603-7.624 160.746-21.886l-4.2 1c48.276-10.701 104.757-18.039 162.519-20.416l1.961-0.064c1.102-0.016 2.403-0.026 3.706-0.026 17.246 0 34.109 1.64 50.442 4.772l-1.668-0.266c135.68 26.88 337.92 182.4 360.96 205.44 10.789 12.64 17.354 29.171 17.354 47.234 0 19.083-7.326 36.454-19.319 49.456l0.046-0.050z" />
<glyph unicode="&#xe94a;" glyph-name="circle-left" d="M512 972.8c-282.77 0-512-229.23-512-512s229.23-512 512-512c282.77 0 512 229.23 512 512v0c0 282.77-229.23 512-512 512v0zM512 28.8c-238.587 0-432 193.413-432 432s193.413 432 432 432c238.587 0 432-193.413 432-432v0c-0.364-238.441-193.559-431.636-431.965-432h-0.035zM428.16 448l178.56 171.52c5.287 6.039 8.513 14 8.513 22.714 0 19.087-15.473 34.56-34.56 34.56-8.075 0-15.503-2.769-21.386-7.41l0.073 0.056-204.16-196.48c-3.551-3.326-6.375-7.382-8.238-11.934l-0.082-0.226c-0.067-0.767-0.105-1.659-0.105-2.56s0.038-1.793 0.112-2.675l-0.008 0.115c-0.86-2.284-1.358-4.924-1.358-7.68s0.498-5.396 1.408-7.835l-0.051 0.155c-0.067-0.767-0.105-1.659-0.105-2.56s0.038-1.793 0.112-2.675l-0.008 0.115c1.53-3.439 3.462-6.396 5.788-8.992l-0.028 0.032 204.16-195.84c6.369-7.276 15.675-11.846 26.047-11.846 19.087 0 34.56 15.473 34.56 34.56 0 11.012-5.151 20.822-13.174 27.15l-0.073 0.056z" />
<glyph unicode="&#xe94b;" glyph-name="dashboard" d="M512 816c-0.001 0-0.003 0-0.004 0-268.631 0-486.4-217.769-486.4-486.4 0-83.116 20.848-161.363 57.599-229.798l-1.275 2.598c6.060-11.133 17.672-18.562 31.019-18.562 0.12 0 0.239 0.001 0.359 0.002h797.422c0.101-0.001 0.221-0.002 0.341-0.002 13.347 0 24.959 7.429 30.927 18.377l0.092 0.184c35.477 65.837 56.324 144.084 56.324 227.2 0 268.631-217.769 486.4-486.4 486.4-0.001 0-0.003 0-0.004 0v0zM888.96 154.24h-330.88l113.28 156.16c4.417 6.242 7.061 14.013 7.061 22.4 0 21.573-17.488 39.061-39.061 39.061-13.185 0-24.845-6.533-31.918-16.539l-0.082-0.122-144-200.96h-328.32c-24.642 51.154-39.041 111.228-39.041 174.665 0 0.244 0 0.488 0.001 0.732v-0.037c0 229.75 186.25 416 416 416s416-186.25 416-416v0c0-0.206 0.001-0.451 0.001-0.695 0-63.437-14.399-123.51-40.106-177.131l1.065 2.466zM512 703.36c-19.44 0-35.2-15.76-35.2-35.2v0-64c0-19.44 15.76-35.2 35.2-35.2s35.2 15.76 35.2 35.2v0 64c0 19.44-15.76 35.2-35.2 35.2v0zM263.68 571.52c-6.388 6.388-15.213 10.339-24.96 10.339-19.495 0-35.299-15.804-35.299-35.299 0-9.747 3.951-18.572 10.339-24.96v0l52.48-52.48c6.388-6.388 15.213-10.339 24.96-10.339 19.495 0 35.299 15.804 35.299 35.299 0 9.747-3.951 18.572-10.339 24.96v0zM760.32 571.52l-52.48-52.48c-6.388-6.388-10.339-15.213-10.339-24.96 0-19.495 15.804-35.299 35.299-35.299 9.747 0 18.572 3.951 24.96 10.339l52.48 52.48c6.388 6.388 10.339 15.213 10.339 24.96 0 19.495-15.804 35.299-35.299 35.299-9.747 0-18.572-3.951-24.96-10.339v0z" />
<glyph unicode="&#xe94c;" glyph-name="ellipsis" d="M358.4 454.4c0-38.881-31.519-70.4-70.4-70.4s-70.4 31.519-70.4 70.4c0 38.881 31.519 70.4 70.4 70.4s70.4-31.519 70.4-70.4zM582.4 454.4c0-38.881-31.519-70.4-70.4-70.4s-70.4 31.519-70.4 70.4c0 38.881 31.519 70.4 70.4 70.4s70.4-31.519 70.4-70.4zM800 454.4c0-38.881-31.519-70.4-70.4-70.4s-70.4 31.519-70.4 70.4c0 38.881 31.519 70.4 70.4 70.4s70.4-31.519 70.4-70.4zM512 972.8c-281.6 0-512-230.4-512-512s230.4-512 512-512c281.6 0 512 230.4 512 512s-230.4 512-512 512zM512 38.4c-236.8 0-422.4 192-422.4 422.4s192 422.4 422.4 422.4c236.8 0 422.4-192 422.4-422.4s-185.6-422.4-422.4-422.4z" />
<glyph unicode="&#xe94d;" glyph-name="mask" d="M953.6 921.6c0 6.4 0 6.4 0 12.8v6.4c0 19.2-19.2 38.4-44.8 38.4h-12.8c-6.4 0-12.8 0-19.2-6.4-32-12.8-38.4-19.2-70.4-25.6-96-38.4-192-57.6-288-57.6v0c-115.2 0-230.4 25.6-345.6 76.8-6.4 0-12.8 6.4-19.2 6.4-12.8 0-19.2 0-25.6 0v0c-19.2 0-38.4-12.8-44.8-25.6-12.8-38.4-12.8-70.4-19.2-102.4v-19.2c-19.2-121.6-19.2-224-6.4-320 32-262.4 172.8-448 422.4-544 0 0 6.4 0 6.4 0 6.4-6.4 12.8-12.8 25.6-12.8h6.4c6.4 0 12.8 0 19.2 6.4 19.2 6.4 32 19.2 51.2 25.6 19.2 12.8 44.8 19.2 70.4 32 172.8 96 281.6 249.6 313.6 454.4 25.6 166.4 6.4 326.4-19.2 454.4zM889.6 480c-32-179.2-115.2-307.2-268.8-396.8-19.2-12.8-38.4-19.2-57.6-25.6-12.8-6.4-25.6-12.8-38.4-19.2-6.4 0-6.4 0-12.8 6.4-217.6 83.2-339.2 243.2-364.8 473.6-19.2 83.2-19.2 185.6 0 294.4v19.2c0 12.8 6.4 32 6.4 44.8 121.6-51.2 243.2-76.8 358.4-76.8 0 0 0 0 0 0 102.4 0 211.2 19.2 320 57.6 19.2 6.4 25.6 12.8 38.4 12.8 25.6-108.8 38.4-249.6 19.2-390.4zM710.4 345.6c-64 0-121.6 0-185.6 0s-121.6 0-185.6 0c-19.2 0-25.6-6.4-19.2-19.2 6.4-25.6 19.2-51.2 44.8-70.4 76.8-64 236.8-64 320-6.4 25.6 19.2 44.8 44.8 44.8 76.8 0 19.2-6.4 19.2-19.2 19.2zM403.2 544c38.4 0 38.4 6.4 32 38.4-12.8 51.2-64 96-108.8 102.4s-83.2-19.2-108.8-76.8c-12.8-12.8-6.4-19.2 6.4-25.6 44.8-32 96-38.4 153.6-38.4 6.4 0 12.8 0 25.6 0zM710.4 684.8c-44.8 0-89.6-38.4-108.8-89.6-19.2-44.8-12.8-51.2 38.4-51.2 6.4 0 6.4 0 12.8 0 57.6 0 108.8 12.8 160 44.8 0 0 6.4 0 6.4 12.8-12.8 38.4-64 83.2-108.8 83.2z" />
<glyph unicode="&#xe94e;" glyph-name="money" d="M819.84 391.68h-269.44v133.12h266.24c21.208 0 38.4 17.192 38.4 38.4s-17.192 38.4-38.4 38.4h-168.32l128 212.48c6.647 6.894 10.742 16.288 10.742 26.639 0 21.208-17.192 38.4-38.4 38.4-16.768 0-31.026-10.747-36.26-25.729l-0.082-0.269-152.96-251.52h-93.44l-149.76 252.16c-5.317 15.251-19.574 25.999-36.342 25.999-21.208 0-38.4-17.192-38.4-38.4 0-10.35 4.095-19.744 10.754-26.65l-0.011 0.012 128-212.48h-172.8c-21.208 0-38.4-17.192-38.4-38.4s17.192-38.4 38.4-38.4h266.24v-133.76h-269.44c-21.208 0-38.4-17.192-38.4-38.4s17.192-38.4 38.4-38.4h269.44v-270.72c0-21.208 17.192-38.4 38.4-38.4s38.4 17.192 38.4 38.4v0 270.72h269.44c21.208 0 38.4 17.192 38.4 38.4s-17.192 38.4-38.4 38.4v0z" />
<glyph unicode="&#xe94f;" glyph-name="product" d="M960 666.24c0.16 1.249 0.251 2.694 0.251 4.16s-0.091 2.911-0.269 4.329l0.017-0.169c-2.095 3.482-4.649 6.443-7.623 8.914l-0.057 0.046-400 270.72c-5.712 4.169-12.873 6.67-20.618 6.67-7.352 0-14.178-2.254-19.823-6.109l0.121 0.078-412.8-268.16c-2.998-2.345-5.542-5.093-7.6-8.192l-0.080-0.128v-3.84c-2.349-4.461-3.76-9.737-3.84-15.335v-407.065c0.023-12.276 6.326-23.076 15.868-29.358l0.132-0.082 408.32-273.92c5.099-3.183 11.284-5.084 17.91-5.12h0.010c6.127 0.099 11.847 1.748 16.814 4.571l-0.174-0.091 384 267.52 9.6 4.48c9.674 6.364 15.977 17.164 16 29.437v406.403c1.774 2.947 3.11 6.383 3.809 10.044l0.031 0.196zM497.28 41.6l-343.68 227.2v320l343.68-224zM531.84 429.44l-348.8 227.84 348.8 225.92 330.88-225.92zM890.88 268.8l-320-225.28v325.12l320 222.080z" />
</font>
</defs>
</svg>
